<svg width="18" height="18" viewBox="0 0 18 18" fill="none" xmlns="http://www.w3.org/2000/svg">
    <path d="M6.1875 2.25H11.8125C11.9617 2.25 12.1048 2.19074 12.2102 2.08525C12.3157 1.97976 12.375 1.83668 12.375 1.6875C12.375 1.53832 12.3157 1.39524 12.2102 1.28975C12.1048 1.18426 11.9617 1.125 11.8125 1.125H6.1875C6.03832 1.125 5.89524 1.18426 5.78975 1.28975C5.68426 1.39524 5.625 1.53832 5.625 1.6875C5.625 1.83668 5.68426 1.97976 5.78975 2.08525C5.89524 2.19074 6.03832 2.25 6.1875 2.25Z" fill="#BBBFBF"/>
    <path d="M15.1875 3.375H2.8125C2.66332 3.375 2.52024 3.43426 2.41475 3.53975C2.30926 3.64524 2.25 3.78832 2.25 3.9375C2.25 4.08668 2.30926 4.22976 2.41475 4.33525C2.52024 4.44074 2.66332 4.5 2.8125 4.5H3.375V14.625C3.37529 14.9233 3.49392 15.2093 3.70483 15.4202C3.91574 15.6311 4.20172 15.7497 4.5 15.75H13.5C13.7983 15.7497 14.0843 15.6311 14.2952 15.4202C14.5061 15.2093 14.6247 14.9233 14.625 14.625V4.5H15.1875C15.3367 4.5 15.4798 4.44074 15.5852 4.33525C15.6907 4.22976 15.75 4.08668 15.75 3.9375C15.75 3.78832 15.6907 3.64524 15.5852 3.53975C15.4798 3.43426 15.3367 3.375 15.1875 3.375ZM7.875 11.8125C7.875 11.9617 7.81574 12.1048 7.71025 12.2102C7.60476 12.3157 7.46168 12.375 7.3125 12.375C7.16332 12.375 7.02024 12.3157 6.91475 12.2102C6.80926 12.1048 6.75 11.9617 6.75 11.8125V7.3125C6.75 7.16332 6.80926 7.02024 6.91475 6.91475C7.02024 6.80926 7.16332 6.75 7.3125 6.75C7.46168 6.75 7.60476 6.80926 7.71025 6.91475C7.81574 7.02024 7.875 7.16332 7.875 7.3125V11.8125ZM11.25 11.8125C11.25 11.9617 11.1907 12.1048 11.0852 12.2102C10.9798 12.3157 10.8367 12.375 10.6875 12.375C10.5383 12.375 10.3952 12.3157 10.2898 12.2102C10.1843 12.1048 10.125 11.9617 10.125 11.8125V7.3125C10.125 7.16332 10.1843 7.02024 10.2898 6.91475C10.3952 6.80926 10.5383 6.75 10.6875 6.75C10.8367 6.75 10.9798 6.80926 11.0852 6.91475C11.1907 7.02024 11.25 7.16332 11.25 7.3125V11.8125Z" fill="#BBBFBF"/>
</svg>