<svg width="120" height="46" viewBox="0 0 120 46" fill="none" xmlns="http://www.w3.org/2000/svg">
    <path d="M2.01143 10.7364C1.75428 5.78967 5.87039 1.65786 10.8104 2.02214C22.9114 2.91449 44.1796 4.29948 59.6168 4.29948C75.054 4.29948 96.3222 2.91449 108.423 2.02214C113.363 1.65786 117.479 5.78967 117.222 10.7364C117.086 13.364 116.981 16.1308 116.981 18.4507C116.981 20.7706 117.086 23.5374 117.222 26.165C117.479 31.1117 113.363 35.2435 108.423 34.8792C96.3222 33.9869 75.054 32.6019 59.6168 32.6019C44.1796 32.6019 22.9114 33.9869 10.8104 34.8792C5.87039 35.2435 1.75428 31.1117 2.01143 26.165C2.14803 23.5374 2.2524 20.7706 2.2524 18.4507C2.2524 16.1308 2.14803 13.364 2.01143 10.7364Z" fill="#F4F4F4"/>
    <path fill-rule="evenodd" clip-rule="evenodd" d="M10.9575 0.0280386C23.0592 0.920437 44.2612 2.29996 59.6168 2.29996C74.9724 2.29996 96.1744 0.920438 108.276 0.028039C114.45 -0.427193 119.537 4.72462 119.219 10.8407C119.084 13.4548 118.981 16.182 118.981 18.4512C118.981 20.7204 119.084 23.4476 119.219 26.0617C119.537 32.1778 114.45 37.3296 108.276 36.8743C96.1745 35.9819 74.9724 34.6024 59.6168 34.6024C44.2612 34.6024 23.0592 35.9819 10.9575 36.8743C4.78412 37.3296 -0.303803 32.1778 0.0141362 26.0617C0.150029 23.4476 0.252406 20.7204 0.252406 18.4512C0.252406 16.182 0.150029 13.4548 0.0141363 10.8407C-0.303802 4.72462 4.78411 -0.427193 10.9575 0.0280386ZM10.8104 2.02264C5.87041 1.65836 1.7543 5.79017 2.01145 10.7369C2.14805 13.3645 2.25242 16.1313 2.25242 18.4512C2.25242 20.7711 2.14805 23.5379 2.01145 26.1655C1.7543 31.1122 5.87042 35.244 10.8104 34.8797C22.9115 33.9874 44.1796 32.6024 59.6168 32.6024C75.054 32.6024 96.3222 33.9874 108.423 34.8797C113.363 35.244 117.479 31.1122 117.222 26.1655C117.086 23.5379 116.981 20.7711 116.981 18.4512C116.981 16.1313 117.086 13.3645 117.222 10.7369C117.479 5.79017 113.363 1.65836 108.423 2.02264C96.3222 2.91499 75.054 4.29997 59.6168 4.29997C44.1796 4.29997 22.9114 2.91499 10.8104 2.02264Z" fill="#838989"/>
    <path d="M50.1521 2.49341C50.2274 1.45361 51.0941 0.654053 52.1366 0.654053H70.5557C71.5983 0.654053 72.465 1.45361 72.5403 2.49341C72.7867 5.89584 73.2754 13.3015 73.2754 18.5292C73.2754 23.7569 72.7867 31.1625 72.5403 34.565C72.465 35.6048 71.5983 36.4043 70.5557 36.4043H52.1366C51.0941 36.4043 50.2274 35.6048 50.1521 34.565C49.9056 31.1625 49.417 23.7569 49.417 18.5292C49.417 13.3015 49.9056 5.89583 50.1521 2.49341Z" fill="#838989"/>
    <path d="M56.5342 27.7046H65.5769V43.7178L61.0556 39.1964L56.5342 43.7178V27.7046Z" fill="#F4F4F4"/>
    <path fill-rule="evenodd" clip-rule="evenodd" d="M54.5342 27.7046C54.5342 26.6 55.4296 25.7046 56.5342 25.7046H65.577C66.6815 25.7046 67.577 26.6 67.577 27.7046V43.7178C67.577 44.5268 67.0897 45.2561 66.3423 45.5656C65.595 45.8752 64.7347 45.7041 64.1627 45.1321L61.0556 42.0249L57.9484 45.1321C57.3764 45.7041 56.5162 45.8752 55.7688 45.5656C55.0215 45.2561 54.5342 44.5268 54.5342 43.7178V27.7046ZM61.0556 39.1965L65.577 43.7178V27.7046H56.5342V43.7178L61.0556 39.1965Z" fill="#838989"/>
    <path d="M71.6485 23.9432C71.6485 25.2402 70.1301 25.9388 69.6929 27.0821C69.2488 28.2432 69.8796 29.846 69.0715 30.7616C68.0918 31.8716 66.3342 31.4901 64.9619 32.0968C63.6885 32.6598 62.8222 34.2513 61.3404 34.2513C59.8585 34.2513 58.9922 32.6598 57.7188 32.0968C56.3465 31.4901 54.589 31.8716 53.6093 30.7616C52.8012 29.846 53.432 28.2432 52.9879 27.0821C52.5506 25.9388 51.0322 25.2402 51.0322 23.9432C51.0322 22.6461 52.5506 21.9475 52.9879 20.8042C53.382 19.7738 52.6579 18.2802 53.3426 17.4393C54.2535 16.3205 55.3944 16.6754 56.6933 16.0183C58.0896 15.3119 59.6685 13.635 61.3404 13.635C63.0122 13.635 64.5911 15.3119 65.9875 16.0183C67.2863 16.6754 68.4273 16.3205 69.3381 17.4393C70.0228 18.2802 69.2987 19.7738 69.6929 20.8042C70.1301 21.9475 71.6485 22.6461 71.6485 23.9432Z" fill="#F4F4F4"/>
    <path fill-rule="evenodd" clip-rule="evenodd" d="M58.3426 16.1703C57.9673 16.4301 57.5592 16.7011 57.1447 16.9109C56.5053 17.2344 55.8527 17.3703 55.3924 17.4662C55.2847 17.4887 55.1875 17.5089 55.1034 17.5289C54.6405 17.6388 54.3746 17.7558 54.1181 18.0709C54.0623 18.1395 54.003 18.3122 54.0534 18.9751C54.0576 19.0299 54.0625 19.0892 54.0677 19.152C54.0876 19.3926 54.1117 19.683 54.1133 19.9563C54.1154 20.3117 54.0836 20.7389 53.9219 21.1617C53.7574 21.592 53.5047 21.9465 53.2685 22.2321C53.1122 22.4212 52.9256 22.622 52.7667 22.7931C52.7008 22.8639 52.6397 22.9297 52.5874 22.9874C52.1567 23.4632 52.0322 23.7093 52.0322 23.9434C52.0322 24.1775 52.1567 24.4236 52.5874 24.8994C52.6397 24.9571 52.7008 25.0229 52.7667 25.0938C52.9256 25.2648 53.1122 25.4656 53.2685 25.6547C53.5047 25.9404 53.7574 26.2948 53.9219 26.7251C54.0867 27.1559 54.1392 27.5926 54.1575 27.9698C54.1704 28.2354 54.1671 28.5231 54.1642 28.7696C54.1632 28.858 54.1622 28.9411 54.1621 29.0159C54.1609 29.7007 54.2335 29.9578 54.359 30.1001C54.6006 30.3738 54.9704 30.5162 55.6773 30.6311C55.7914 30.6497 55.9194 30.6676 56.0577 30.687C56.6538 30.7704 57.4403 30.8805 58.1232 31.1825C58.5574 31.3744 58.9288 31.641 59.2409 31.8925C59.4053 32.025 59.6088 32.2013 59.7898 32.3581C59.9051 32.4581 60.0112 32.5501 60.0923 32.6177C60.6315 33.0678 60.9793 33.2516 61.3404 33.2516C61.7015 33.2516 62.0493 33.0678 62.5885 32.6177C62.6696 32.5501 62.7757 32.4581 62.8911 32.3581C63.072 32.2013 63.2755 32.025 63.4398 31.8925C63.752 31.641 64.1234 31.3744 64.5576 31.1825C65.2405 30.8805 66.027 30.7704 66.6231 30.687C66.7613 30.6676 66.8894 30.6497 67.0035 30.6311C67.7104 30.5162 68.0802 30.3738 68.3218 30.1001C68.4473 29.9578 68.5199 29.7007 68.5187 29.0159C68.5186 28.9411 68.5176 28.858 68.5166 28.7697C68.5137 28.5232 68.5103 28.2354 68.5232 27.9698C68.5416 27.5926 68.5941 27.1559 68.7588 26.7251C68.9234 26.2948 69.1761 25.9404 69.4122 25.6547C69.5686 25.4656 69.7552 25.2648 69.9141 25.0938C69.98 25.0229 70.0411 24.9571 70.0933 24.8994C70.524 24.4236 70.6485 24.1775 70.6485 23.9434C70.6485 23.7093 70.524 23.4632 70.0933 22.9874C70.0411 22.9297 69.98 22.8639 69.9141 22.7931C69.7552 22.622 69.5686 22.4212 69.4122 22.2321C69.1761 21.9465 68.9234 21.592 68.7588 21.1617C68.5971 20.7389 68.5654 20.3117 68.5675 19.9563C68.5691 19.683 68.5931 19.3925 68.6131 19.1519C68.6183 19.0892 68.6232 19.0299 68.6273 18.9751C68.6777 18.3122 68.6185 18.1395 68.5627 18.0709C68.3061 17.7558 68.0403 17.6388 67.5774 17.5289C67.4933 17.5089 67.3961 17.4887 67.2884 17.4662C66.828 17.3703 66.1755 17.2344 65.5361 16.9109C65.1216 16.7011 64.7134 16.4301 64.3381 16.1703C64.2135 16.084 64.0936 15.9997 63.976 15.9172C63.721 15.738 63.4772 15.5667 63.221 15.3996C62.4618 14.9045 61.8625 14.6353 61.3404 14.6353C60.8183 14.6353 60.219 14.9045 59.4598 15.3996C59.2035 15.5667 58.9598 15.738 58.7047 15.9172C58.5872 15.9997 58.4673 16.084 58.3426 16.1703ZM58.3673 13.7243C59.1646 13.2044 60.1906 12.6353 61.3404 12.6353C62.4902 12.6353 63.5162 13.2044 64.3135 13.7243C64.5996 13.9109 64.8904 14.1152 65.1586 14.3035C65.2691 14.3812 65.3758 14.4561 65.4767 14.526C65.8424 14.7792 66.1553 14.9827 66.4389 15.1262C66.821 15.3195 67.1476 15.389 67.5733 15.4796C67.7156 15.5099 67.869 15.5425 68.0393 15.5829C68.6992 15.7396 69.4593 16.0045 70.1136 16.8081C70.7395 17.5768 70.6643 18.5655 70.6222 19.1188L70.6216 19.1267C70.6151 19.2117 70.6087 19.2907 70.6025 19.3655C70.5839 19.5921 70.5686 19.779 70.5674 19.9681C70.566 20.2089 70.5915 20.3548 70.6269 20.4472C70.681 20.5886 70.7821 20.7502 70.9536 20.9576C71.0734 21.1025 71.1904 21.2282 71.3267 21.3746C71.4026 21.4561 71.4844 21.544 71.576 21.6452C72.0138 22.1288 72.6485 22.8805 72.6485 23.9434C72.6485 25.0064 72.0138 25.7581 71.576 26.2417C71.4844 26.3428 71.4026 26.4308 71.3267 26.5123C71.1904 26.6586 71.0734 26.7843 70.9536 26.9292C70.7821 27.1366 70.681 27.2982 70.6269 27.4396C70.5696 27.5894 70.5344 27.7884 70.5209 28.0669C70.5111 28.2688 70.5134 28.4608 70.516 28.6827C70.5172 28.7849 70.5185 28.8935 70.5187 29.0124C70.5198 29.6482 70.5038 30.6502 69.8212 31.4235C69.0831 32.2598 68.0843 32.4817 67.3244 32.6052C67.1179 32.6388 66.9283 32.6661 66.7521 32.6916C66.1939 32.7721 65.7699 32.8332 65.3663 33.0117C65.1638 33.1012 64.9494 33.2446 64.6947 33.4499C64.5316 33.5813 64.4056 33.6914 64.2671 33.8125C64.1527 33.9125 64.0297 34.02 63.8701 34.1531C63.2874 34.6395 62.4611 35.2516 61.3404 35.2516C60.2196 35.2516 59.3933 34.6395 58.8106 34.1531C58.6511 34.02 58.5281 33.9125 58.4137 33.8125C58.2752 33.6914 58.1492 33.5813 57.9861 33.4499C57.7314 33.2446 57.517 33.1012 57.3145 33.0117C56.9109 32.8332 56.4868 32.7721 55.9287 32.6916C55.7525 32.6661 55.5629 32.6388 55.3564 32.6052C54.5965 32.4817 53.5977 32.2598 52.8595 31.4235C52.177 30.6502 52.1609 29.6482 52.1621 29.0124C52.1623 28.8935 52.1636 28.7849 52.1648 28.6826C52.1674 28.4608 52.1697 28.2688 52.1599 28.0669C52.1463 27.7884 52.1112 27.5894 52.0539 27.4396C51.9998 27.2982 51.8987 27.1366 51.7272 26.9292C51.6074 26.7843 51.4903 26.6586 51.3541 26.5123C51.2782 26.4307 51.1963 26.3428 51.1047 26.2417C50.6669 25.7581 50.0322 25.0064 50.0322 23.9434C50.0322 22.8805 50.6669 22.1288 51.1047 21.6452C51.1963 21.544 51.2782 21.4561 51.3541 21.3746C51.4903 21.2282 51.6074 21.1025 51.7272 20.9576C51.8987 20.7502 51.9998 20.5886 52.0539 20.4472C52.0892 20.3548 52.1148 20.2089 52.1133 19.9681C52.1122 19.779 52.0969 19.5921 52.0783 19.3655C52.0721 19.2907 52.0656 19.2117 52.0592 19.1267L52.0586 19.1188C52.0165 18.5655 51.9413 17.5768 52.5672 16.8081C53.2215 16.0045 53.9816 15.7396 54.6415 15.5829C54.8118 15.5425 54.9652 15.5099 55.1075 15.4796C55.5332 15.389 55.8598 15.3195 56.2418 15.1262C56.5255 14.9827 56.8384 14.7792 57.2041 14.526C57.305 14.4561 57.4117 14.3812 57.5222 14.3035C57.7904 14.1152 58.0812 13.9109 58.3673 13.7243Z" fill="#838989"/>
    <path fill-rule="evenodd" clip-rule="evenodd" d="M67.3723 23.9431C67.3723 27.275 64.6988 30.0197 61.3473 30.0197C57.9958 30.0197 55.3223 27.275 55.3223 23.9431C55.3223 20.6112 57.9958 17.8665 61.3473 17.8665C64.6988 17.8665 67.3723 20.6112 67.3723 23.9431ZM61.3473 28.0197C63.5703 28.0197 65.3723 26.1945 65.3723 23.9431C65.3723 21.6916 63.5703 19.8665 61.3473 19.8665C59.1243 19.8665 57.3223 21.6916 57.3223 23.9431C57.3223 26.1945 59.1243 28.0197 61.3473 28.0197Z" fill="#838989"/>
    <path fill-rule="evenodd" clip-rule="evenodd" d="M101.434 19.979C100.881 19.979 100.434 19.5313 100.434 18.979C100.434 14.3051 100.107 6.42752 99.6209 2.16385C99.5584 1.61511 99.9525 1.11959 100.501 1.05707C101.05 0.994556 101.546 1.38872 101.608 1.93746C102.105 6.30178 102.434 14.2604 102.434 18.979C102.434 19.5313 101.986 19.979 101.434 19.979Z" fill="#838989"/>
    <path fill-rule="evenodd" clip-rule="evenodd" d="M94.3887 13.5361C93.8364 13.5361 93.3887 13.0884 93.3887 12.5361C93.3887 8.39577 93.0672 5.6665 92.5831 2.76195C92.4924 2.21717 92.8604 1.70194 93.4052 1.61115C93.9499 1.52035 94.4652 1.88837 94.556 2.43315C95.0548 5.42621 95.3887 8.26691 95.3887 12.5361C95.3887 13.0884 94.941 13.5361 94.3887 13.5361Z" fill="#838989"/>
    <path fill-rule="evenodd" clip-rule="evenodd" d="M77.0234 14.0818C76.4711 14.0818 76.0234 13.6341 76.0234 13.0818C76.0234 8.94143 75.702 6.21215 75.2179 3.3076C75.1271 2.76283 75.4951 2.24759 76.0399 2.1568C76.5847 2.066 77.0999 2.43403 77.1907 2.9788C77.6896 5.97187 78.0234 8.81257 78.0234 13.0818C78.0234 13.6341 77.5757 14.0818 77.0234 14.0818Z" fill="#838989"/>
    <path fill-rule="evenodd" clip-rule="evenodd" d="M45.5186 22.625C46.0709 22.625 46.5186 23.0727 46.5186 23.625C46.5186 27.7654 46.84 30.4946 47.3241 33.3992C47.4149 33.944 47.0469 34.4592 46.5021 34.55C45.9573 34.6408 45.4421 34.2728 45.3513 33.728C44.8524 30.7349 44.5186 27.8942 44.5186 23.625C44.5186 23.0727 44.9663 22.625 45.5186 22.625Z" fill="#838989"/>
    <path fill-rule="evenodd" clip-rule="evenodd" d="M23.2559 13.2124C23.8082 13.2124 24.2559 12.7647 24.2559 12.2124C24.2559 8.07204 24.5773 5.34277 25.0614 2.43822C25.1522 1.89344 24.7842 1.37821 24.2394 1.28742C23.6946 1.19662 23.1794 1.56464 23.0886 2.10942C22.5897 5.10248 22.2559 7.94318 22.2559 12.2124C22.2559 12.7647 22.7036 13.2124 23.2559 13.2124Z" fill="#838989"/>
    <path fill-rule="evenodd" clip-rule="evenodd" d="M16.4639 20.437C17.0162 20.437 17.4639 20.8847 17.4639 21.437C17.4639 25.9287 17.7345 30.1785 18.5393 34.5246C18.6399 35.0676 18.2812 35.5894 17.7381 35.6899C17.1951 35.7905 16.6733 35.4318 16.5727 34.8888C15.7393 30.3884 15.4639 26.0102 15.4639 21.437C15.4639 20.8847 15.9116 20.437 16.4639 20.437Z" fill="#838989"/>
</svg>