<svg width="63" height="81" viewBox="0 0 63 81" fill="none" xmlns="http://www.w3.org/2000/svg">
    <path d="M5.53125 12.5034C5.53125 9.17123 8.23252 6.46997 11.5647 6.46997H56.9667C60.2989 6.46997 63.0002 9.17124 63.0002 12.5034V73.9967C63.0002 77.3289 60.2989 80.0302 56.9667 80.0302H11.5647C8.23252 80.0302 5.53125 77.3289 5.53125 73.9967V12.5034Z" fill="#838989"/>
    <path d="M1.50781 8.48046C1.50781 5.14828 4.20908 2.44702 7.54126 2.44702H52.9433C56.2755 2.44702 58.9767 5.14829 58.9767 8.48047V69.9738C58.9767 73.306 56.2755 76.0072 52.9433 76.0072H7.54126C4.20908 76.0072 1.50781 73.306 1.50781 69.9738V8.48046Z" fill="#F4F4F4"/>
    <path fill-rule="evenodd" clip-rule="evenodd" d="M7.54181 0.938721H52.9438C57.1091 0.938721 60.4856 4.3153 60.4856 8.48053V69.9739C60.4856 74.1391 57.1091 77.5157 52.9438 77.5157H7.54181C3.37658 77.5157 0 74.1391 0 69.9739V8.48053C0 4.3153 3.37658 0.938721 7.54181 0.938721ZM7.54181 2.44708C4.20963 2.44708 1.50836 5.14834 1.50836 8.48053V69.9739C1.50836 73.306 4.20963 76.0073 7.54181 76.0073H52.9438C56.276 76.0073 58.9773 73.306 58.9773 69.9739V8.48053C58.9773 5.14835 56.276 2.44708 52.9438 2.44708H7.54181Z" fill="#838989"/>
    <path d="M8.47656 12.2174C8.47656 10.5513 9.8272 9.20068 11.4933 9.20068H49.7827C51.4488 9.20068 52.7995 10.5513 52.7995 12.2174V19.2863C52.7995 20.9524 51.4488 22.303 49.7827 22.303H11.4933C9.82719 22.303 8.47656 20.9524 8.47656 19.2863V12.2174Z" fill="#838989"/>
    <path fill-rule="evenodd" clip-rule="evenodd" d="M11.1339 27.6323H17.5996C19.2656 27.6323 20.6163 28.983 20.6163 30.649V32.0014C20.6163 33.6675 19.2657 35.0181 17.5996 35.0181H11.1339C9.46782 35.0181 8.11719 33.6675 8.11719 32.0014V30.649C8.11719 28.983 9.46782 27.6323 11.1339 27.6323ZM11.1339 29.1407C10.3009 29.1407 9.62555 29.816 9.62555 30.649V32.0014C9.62555 32.8345 10.3009 33.5098 11.1339 33.5098H17.5996C18.4326 33.5098 19.1079 32.8345 19.1079 32.0014V30.649C19.1079 29.816 18.4326 29.1407 17.5996 29.1407H11.1339Z" fill="#838989"/>
    <path fill-rule="evenodd" clip-rule="evenodd" d="M11.1339 38.2635H17.5996C19.2656 38.2635 20.6163 39.6142 20.6163 41.2803V42.6326C20.6163 44.2987 19.2657 45.6494 17.5996 45.6494H11.1339C9.46782 45.6494 8.11719 44.2987 8.11719 42.6326V41.2803C8.11719 39.6142 9.46782 38.2635 11.1339 38.2635ZM11.1339 39.7719C10.3009 39.7719 9.62555 40.4472 9.62555 41.2803V42.6326C9.62555 43.4657 10.3009 44.141 11.1339 44.141H17.5996C18.4326 44.141 19.1079 43.4657 19.1079 42.6326V41.2803C19.1079 40.4472 18.4326 39.7719 17.5996 39.7719H11.1339Z" fill="#838989"/>
    <path fill-rule="evenodd" clip-rule="evenodd" d="M11.1339 49.4698H17.5996C19.2656 49.4698 20.6163 50.8205 20.6163 52.4866V53.8389C20.6163 55.505 19.2657 56.8557 17.5996 56.8557H11.1339C9.46782 56.8557 8.11719 55.505 8.11719 53.8389V52.4866C8.11719 50.8205 9.46782 49.4698 11.1339 49.4698ZM11.1339 50.9782C10.3009 50.9782 9.62555 51.6535 9.62555 52.4866V53.8389C9.62555 54.672 10.3009 55.3473 11.1339 55.3473H17.5996C18.4326 55.3473 19.1079 54.672 19.1079 53.8389V52.4866C19.1079 51.6535 18.4326 50.9782 17.5996 50.9782H11.1339Z" fill="#838989"/>
    <path fill-rule="evenodd" clip-rule="evenodd" d="M11.1339 60.6761H17.5996C19.2656 60.6761 20.6163 62.0268 20.6163 63.6929V65.0452C20.6163 66.7113 19.2657 68.062 17.5996 68.062H11.1339C9.46782 68.062 8.11719 66.7113 8.11719 65.0452V63.6929C8.11719 62.0268 9.46782 60.6761 11.1339 60.6761ZM11.1339 62.1845C10.3009 62.1845 9.62555 62.8598 9.62555 63.6929V65.0452C9.62555 65.8783 10.3009 66.5536 11.1339 66.5536H17.5996C18.4326 66.5536 19.1079 65.8783 19.1079 65.0452V63.6929C19.1079 62.8598 18.4326 62.1845 17.5996 62.1845H11.1339Z" fill="#838989"/>
    <path fill-rule="evenodd" clip-rule="evenodd" d="M27.7999 27.6323H34.2656C35.9317 27.6323 37.2823 28.983 37.2823 30.649V32.0014C37.2823 33.6675 35.9317 35.0181 34.2656 35.0181H27.7999C26.1338 35.0181 24.7832 33.6675 24.7832 32.0014V30.649C24.7832 28.983 26.1338 27.6323 27.7999 27.6323ZM27.7999 29.1407C26.9669 29.1407 26.2916 29.816 26.2916 30.649V32.0014C26.2916 32.8345 26.9669 33.5098 27.7999 33.5098H34.2656C35.0986 33.5098 35.7739 32.8345 35.7739 32.0014V30.649C35.7739 29.816 35.0986 29.1407 34.2656 29.1407H27.7999Z" fill="#838989"/>
    <path fill-rule="evenodd" clip-rule="evenodd" d="M27.7999 38.2635H34.2656C35.9317 38.2635 37.2823 39.6142 37.2823 41.2803V42.6326C37.2823 44.2987 35.9317 45.6494 34.2656 45.6494H27.7999C26.1338 45.6494 24.7832 44.2987 24.7832 42.6326V41.2803C24.7832 39.6142 26.1338 38.2635 27.7999 38.2635ZM27.7999 39.7719C26.9669 39.7719 26.2916 40.4472 26.2916 41.2803V42.6326C26.2916 43.4657 26.9669 44.141 27.7999 44.141H34.2656C35.0986 44.141 35.7739 43.4657 35.7739 42.6326V41.2803C35.7739 40.4472 35.0986 39.7719 34.2656 39.7719H27.7999Z" fill="#838989"/>
    <path fill-rule="evenodd" clip-rule="evenodd" d="M27.7999 49.4698H34.2656C35.9317 49.4698 37.2823 50.8205 37.2823 52.4866V53.8389C37.2823 55.505 35.9317 56.8557 34.2656 56.8557H27.7999C26.1338 56.8557 24.7832 55.505 24.7832 53.8389V52.4866C24.7832 50.8205 26.1338 49.4698 27.7999 49.4698ZM27.7999 50.9782C26.9669 50.9782 26.2916 51.6535 26.2916 52.4866V53.8389C26.2916 54.672 26.9669 55.3473 27.7999 55.3473H34.2656C35.0986 55.3473 35.7739 54.672 35.7739 53.8389V52.4866C35.7739 51.6535 35.0986 50.9782 34.2656 50.9782H27.7999Z" fill="#838989"/>
    <path fill-rule="evenodd" clip-rule="evenodd" d="M27.7999 60.6761H34.2656C35.9317 60.6761 37.2823 62.0268 37.2823 63.6929V65.0452C37.2823 66.7113 35.9317 68.062 34.2656 68.062H27.7999C26.1338 68.062 24.7832 66.7113 24.7832 65.0452V63.6929C24.7832 62.0268 26.1338 60.6761 27.7999 60.6761ZM27.7999 62.1845C26.9669 62.1845 26.2916 62.8598 26.2916 63.6929V65.0452C26.2916 65.8783 26.9669 66.5536 27.7999 66.5536H34.2656C35.0986 66.5536 35.7739 65.8783 35.7739 65.0452V63.6929C35.7739 62.8598 35.0986 62.1845 34.2656 62.1845H27.7999Z" fill="#838989"/>
    <path fill-rule="evenodd" clip-rule="evenodd" d="M44.0353 27.6323H50.5009C52.167 27.6323 53.5177 28.983 53.5177 30.649V32.0014C53.5177 33.6675 52.167 35.0181 50.5009 35.0181H44.0353C42.3692 35.0181 41.0186 33.6675 41.0186 32.0014V30.649C41.0186 28.983 42.3692 27.6323 44.0353 27.6323ZM44.0353 29.1407C43.2022 29.1407 42.5269 29.816 42.5269 30.649V32.0014C42.5269 32.8345 43.2022 33.5098 44.0353 33.5098H50.5009C51.334 33.5098 52.0093 32.8345 52.0093 32.0014V30.649C52.0093 29.816 51.334 29.1407 50.5009 29.1407H44.0353Z" fill="#838989"/>
    <path fill-rule="evenodd" clip-rule="evenodd" d="M43.173 38.2635H49.6386C51.3047 38.2635 52.6553 39.6142 52.6553 41.2803V65.0452C52.6553 66.7113 51.3047 68.062 49.6386 68.062H43.173C41.5069 68.062 40.1562 66.7113 40.1562 65.0452V41.2803C40.1562 39.6142 41.5069 38.2635 43.173 38.2635ZM43.173 39.7719C42.3399 39.7719 41.6646 40.4472 41.6646 41.2803V65.0452C41.6646 65.8783 42.3399 66.5536 43.173 66.5536H49.6386C50.4717 66.5536 51.147 65.8783 51.147 65.0452V41.2803C51.147 40.4472 50.4717 39.7719 49.6386 39.7719H43.173Z" fill="#838989"/>
    <path fill-rule="evenodd" clip-rule="evenodd" d="M44.0713 51.6126C44.0713 51.1961 44.4089 50.8584 44.8255 50.8584H47.9863C48.4028 50.8584 48.7404 51.1961 48.7404 51.6126C48.7404 52.0291 48.4028 52.3668 47.9863 52.3668H44.8255C44.4089 52.3668 44.0713 52.0291 44.0713 51.6126Z" fill="#838989"/>
    <path fill-rule="evenodd" clip-rule="evenodd" d="M44.0713 54.4143C44.0713 53.9978 44.4089 53.6602 44.8255 53.6602H47.9863C48.4028 53.6602 48.7404 53.9978 48.7404 54.4143C48.7404 54.8309 48.4028 55.1685 47.9863 55.1685H44.8255C44.4089 55.1685 44.0713 54.8309 44.0713 54.4143Z" fill="#838989"/>
    <path fill-rule="evenodd" clip-rule="evenodd" d="M44.0713 13.7113C44.0713 12.5451 45.0167 11.5996 46.183 11.5996H46.8442C48.0105 11.5996 48.9559 12.5451 48.9559 13.7113V17.4256C48.9559 18.5919 48.0105 19.5373 46.8442 19.5373H46.183C45.0167 19.5373 44.0713 18.5919 44.0713 17.4256V13.7113ZM46.183 13.108C45.8498 13.108 45.5797 13.3781 45.5797 13.7113V17.4256C45.5797 17.7588 45.8498 18.0289 46.183 18.0289H46.8442C47.1775 18.0289 47.4476 17.7588 47.4476 17.4256V13.7113C47.4476 13.3781 47.1775 13.108 46.8442 13.108H46.183Z" fill="#F4F4F4"/>
</svg>