<svg width="17" height="16" viewBox="0 0 17 16" fill="none" xmlns="http://www.w3.org/2000/svg">
    <path d="M13.5 3.5H11.7672L10.9156 2.22266C10.87 2.15416 10.8081 2.09801 10.7356 2.05916C10.663 2.02032 10.5819 2 10.4996 2H6.49963C6.41732 2 6.33628 2.02032 6.26371 2.05916C6.19113 2.09801 6.12927 2.15416 6.08362 2.22266L5.23206 3.5H3.5C3.10231 3.50045 2.72105 3.65864 2.43984 3.93984C2.15864 4.22105 2.00045 4.60231 2 5V12C2.00045 12.3977 2.15864 12.779 2.43984 13.0602C2.72105 13.3414 3.10231 13.4995 3.5 13.5H13.5C13.8977 13.4995 14.279 13.3414 14.5602 13.0602C14.8414 12.779 14.9995 12.3977 15 12V5C14.9995 4.60231 14.8414 4.22105 14.5602 3.93984C14.279 3.65864 13.8977 3.50045 13.5 3.5ZM10.75 8.25C10.75 8.69501 10.618 9.13002 10.3708 9.50003C10.1236 9.87004 9.77217 10.1584 9.36104 10.3287C8.9499 10.499 8.4975 10.5436 8.06105 10.4568C7.62459 10.37 7.22368 10.1557 6.90901 9.84099C6.59434 9.52632 6.38005 9.12541 6.29323 8.68895C6.20642 8.2525 6.25097 7.8001 6.42127 7.38896C6.59157 6.97783 6.87996 6.62643 7.24997 6.37919C7.61998 6.13196 8.05499 6 8.5 6C9.09653 6.00067 9.66844 6.23794 10.0903 6.65975C10.5121 7.08156 10.7493 7.65347 10.75 8.25Z" fill="black"/>
</svg>