<svg width="15" height="14" viewBox="0 0 15 14" fill="none" xmlns="http://www.w3.org/2000/svg">
    <path fill-rule="evenodd" clip-rule="evenodd" d="M4.21764 3.26111V2.44363C4.21764 1.83826 4.65558 1.32399 5.24755 1.23419L6.09054 1.10631C7.02495 0.964563 7.97505 0.964563 8.90947 1.10631L9.75246 1.23419C10.3444 1.32399 10.7824 1.83826 10.7824 2.44363V3.26111L11.9668 3.3578C12.8737 3.43183 13.6135 4.12238 13.7589 5.03068C14.0804 7.03811 14.0804 9.08478 13.7589 11.0922C13.6135 12.0005 12.8737 12.6911 11.9668 12.7651L10.6733 12.8707C8.56119 13.0431 6.43881 13.0431 4.32674 12.8707L3.0332 12.7651C2.12631 12.6911 1.38654 12.0005 1.24109 11.0922C0.919636 9.08478 0.919636 7.03811 1.24109 5.03068C1.38654 4.12238 2.12631 3.43183 3.0332 3.3578L4.21764 3.26111ZM6.2443 2.14297C7.07678 2.01669 7.92323 2.01669 8.75571 2.14297L9.5987 2.27085C9.68327 2.28368 9.74583 2.35715 9.74583 2.44363V3.18761C8.24983 3.10132 6.75018 3.10132 5.25418 3.18761V2.44363C5.25418 2.35714 5.31674 2.28368 5.40131 2.27085L6.2443 2.14297ZM4.41013 4.29706C6.4667 4.12918 8.5333 4.12918 10.5899 4.29706L11.8834 4.40266C12.3147 4.43787 12.6665 4.76628 12.7357 5.19825C12.7788 5.46725 12.8157 5.737 12.8466 6.00728C9.47606 7.68575 5.52394 7.68575 2.1534 6.00729C2.18426 5.737 2.22122 5.46726 2.2643 5.19825C2.33347 4.76628 2.68529 4.43787 3.11659 4.40266L4.41013 4.29706ZM2.06088 7.12267C5.51559 8.71163 9.48442 8.71163 12.9391 7.12267C13.005 8.39187 12.9372 9.66642 12.7357 10.9246C12.6665 11.3566 12.3147 11.685 11.8834 11.7202L10.5899 11.8258C8.5333 11.9937 6.4667 11.9937 4.41013 11.8258L3.11659 11.7202C2.68529 11.685 2.33347 11.3566 2.2643 10.9246C2.06281 9.66642 1.99501 8.39188 2.06088 7.12267Z" fill="white"/>
</svg>
