<svg width="52" height="33" viewBox="0 0 52 33" fill="none" xmlns="http://www.w3.org/2000/svg">
<path d="M7.61129 14.2642C7.21082 14.3325 6.88888 14.5195 6.64545 14.8252C6.40027 15.1207 6.23329 15.4714 6.14452 15.8776C6.06602 16.2819 5.9774 16.7197 5.87868 17.1909C5.79022 17.6604 5.69134 18.1 5.58203 18.5096C5.48299 18.9175 5.28521 19.2735 4.98868 19.5777C4.70418 19.8904 4.32576 20.087 3.85341 20.1676C3.36053 20.2516 2.82787 20.2579 2.25542 20.1865L2.2011 19.5934C2.71515 19.6326 3.12106 19.6267 3.41885 19.5759C3.73717 19.5217 3.98812 19.3521 4.17169 19.0671C4.35527 18.7822 4.47179 18.4453 4.52125 18.0565C4.58098 17.6659 4.65419 17.2307 4.74088 16.751C4.82581 16.261 4.92029 15.7958 5.0243 15.3553C5.13859 14.9132 5.34721 14.4972 5.65016 14.1073C5.95312 13.7175 6.34134 13.4241 6.81482 13.2271C6.2374 13.1882 5.72522 13.0061 5.27827 12.6808C4.82956 12.3452 4.46797 11.9631 4.1935 11.5344C3.91904 11.1057 3.65573 10.6803 3.40356 10.2584C3.16167 9.8347 2.89192 9.49501 2.59434 9.23932C2.29675 8.98363 1.96826 8.88643 1.60887 8.94772C1.58833 8.95123 1.23864 9.06899 0.559785 9.301L0.299939 8.7113C1.1548 8.39642 1.73113 8.21359 2.02891 8.16281C2.49099 8.084 2.91454 8.18083 3.29956 8.45331C3.69309 8.71377 4.03223 9.05748 4.31696 9.48444C4.60169 9.9114 4.88129 10.3392 5.15575 10.7679C5.44049 11.1949 5.7651 11.5464 6.12959 11.8223C6.50258 12.0863 6.91073 12.1858 7.35403 12.1207L6.68719 7.68534L7.48378 7.70798C7.56107 8.09635 7.70931 8.80548 7.92851 9.83537C8.15798 10.8635 8.31048 11.5666 8.38601 11.9447C8.82578 11.8592 9.17236 11.631 9.42574 11.2602C9.68762 10.8774 9.87643 10.4383 9.99217 9.94308C10.1182 9.44607 10.2442 8.94906 10.3702 8.45205C10.4962 7.95504 10.6961 7.51939 10.9701 7.14509C11.2525 6.75878 11.6247 6.52622 12.0868 6.44741C12.3846 6.39662 12.9891 6.37805 13.9004 6.3917L13.8522 7.03395C13.1346 7.04011 12.7603 7.04581 12.7295 7.05107C12.3701 7.11236 12.0928 7.31289 11.8975 7.65264C11.7022 7.99239 11.5612 8.40214 11.4745 8.88188C11.3878 9.36161 11.2866 9.84911 11.1709 10.3444C11.0551 10.8396 10.8417 11.3198 10.5306 11.785C10.2176 12.2399 9.7954 12.5814 9.26384 12.8094C9.77612 12.8383 10.2402 12.9864 10.656 13.2536C11.0718 13.5208 11.4023 13.8449 11.6474 14.2257C11.8925 14.6066 12.1369 15.014 12.3806 15.448C12.6225 15.8717 12.8368 16.2578 13.0235 16.6064C13.2102 16.955 13.4325 17.2341 13.6905 17.4437C13.9587 17.6515 14.252 17.7283 14.5703 17.674C14.8784 17.6215 15.2683 17.4916 15.74 17.2843L15.8867 17.8616C15.3707 18.1187 14.8663 18.2893 14.3734 18.3734C13.901 18.4539 13.4734 18.3948 13.0904 18.1959C12.7195 18.0055 12.4142 17.7353 12.1743 17.3853C11.9448 17.0334 11.7048 16.6517 11.4544 16.24C11.2143 15.8266 10.9846 15.4431 10.7653 15.0895C10.5563 14.7341 10.2869 14.4578 9.95701 14.2604C9.62541 14.0528 9.25937 13.9832 8.8589 14.0515L9.74761 18.6709C9.70987 19.0049 9.5575 19.1947 9.29053 19.2402C9.1057 19.2718 8.91277 19.2254 8.71175 19.1012C8.521 18.9752 8.38657 18.8079 8.30846 18.5994C8.2708 18.2571 8.03841 16.812 7.61129 14.2642ZM20.9045 9.04883L21.9361 8.7778C22.6876 10.0762 23.6548 12.5688 24.8378 16.2558C24.6703 16.3266 24.4993 16.3769 24.3247 16.4067C24.1707 16.4329 23.9866 16.4379 23.7724 16.4216C23.5316 15.8815 23.186 14.9154 22.7355 13.5234C22.2952 12.1297 21.9469 11.1483 21.6906 10.5791C21.3286 11.4862 20.9101 13.1109 20.4352 15.4533C20.3651 15.4758 20.2403 15.5182 20.0608 15.5805C19.8915 15.6411 19.7606 15.6793 19.6682 15.695C19.5553 15.7143 19.4191 15.7217 19.2598 15.7171C19.0232 15.3242 18.6613 14.6938 18.1739 13.8259C17.6951 12.946 17.3176 12.2865 17.0414 11.8475C16.4895 14.5412 16.1944 16.5147 16.156 17.7682L15.5262 17.7012C15.4435 16.9122 15.4922 15.5038 15.6723 13.4759C15.8506 11.4377 15.9453 10.143 15.9563 9.59161C16.0795 9.5706 16.2208 9.56235 16.3801 9.56688C16.5479 9.55939 16.6729 9.54864 16.755 9.53463C17.1014 9.95108 17.6184 10.7769 18.3063 12.0122C18.9923 13.2372 19.4406 14.0009 19.6511 14.3031C20.0505 11.9525 20.4683 10.2011 20.9045 9.04883ZM26.5946 14.5771C26.6246 14.7517 26.6745 14.9809 26.7444 15.2649C26.7067 15.5989 26.5543 15.7886 26.2873 15.8342C26.1025 15.8657 25.9105 15.8245 25.7112 15.7105C25.5205 15.5846 25.386 15.4173 25.3079 15.2087C25.1959 14.3719 25.0228 13.1492 24.7888 11.5406C24.565 9.93034 24.4149 8.84112 24.3384 8.27298L25.0257 8.02894C25.2618 8.66497 25.4888 9.52447 25.7065 10.6074C25.9243 11.6904 26.1047 12.4944 26.2477 13.0195C26.3934 12.6988 26.8192 11.8548 27.525 10.4875C28.2307 9.12022 28.6968 8.11083 28.9231 7.45935C29.1419 7.37975 29.2821 7.3347 29.3438 7.32419C29.5389 7.29092 29.6873 7.35542 29.7892 7.51768C29.9013 7.6782 30.0091 7.99796 30.1125 8.47698L31.4951 14.7716C31.4556 15.0954 31.3024 15.28 31.0354 15.3256C30.8506 15.3571 30.6585 15.3159 30.4593 15.2019C30.2685 15.0759 30.1341 14.9086 30.056 14.7001C30.008 14.3595 29.8917 13.5287 29.7071 12.2076C29.5309 10.8745 29.4106 9.92814 29.3462 9.36851C27.9342 11.6699 27.017 13.4061 26.5946 14.5771Z" fill="#717171"/>
<path d="M50.4956 23.9341C50.4592 23.6604 50.2078 23.468 49.9341 23.5044L45.4734 24.0975C45.1996 24.1339 45.0072 24.3853 45.0436 24.659C45.08 24.9328 45.3314 25.1252 45.6052 25.0888L49.5703 24.5615L50.0975 28.5266C50.1339 28.8004 50.3853 28.9928 50.659 28.9564C50.9328 28.92 51.1252 28.6686 51.0888 28.3948L50.4956 23.9341ZM33.8461 31.8856L33.7796 32.3811L33.8461 31.8856ZM22 24C21.525 24.1561 21.5251 24.1564 21.5252 24.1567C21.5253 24.1569 21.5254 24.1573 21.5255 24.1576C21.5257 24.1582 21.5259 24.1588 21.5262 24.1596C21.5267 24.1612 21.5274 24.1632 21.5282 24.1656C21.5298 24.1704 21.532 24.1767 21.5347 24.1846C21.5403 24.2004 21.5481 24.2222 21.5585 24.2499C21.5793 24.3052 21.61 24.3836 21.6522 24.4821C21.7364 24.6791 21.8662 24.957 22.0523 25.2921C22.4244 25.9622 23.0226 26.8628 23.933 27.8033C25.7599 29.6903 28.8235 31.716 33.7796 32.3811L33.9126 31.39C29.1867 30.7558 26.3272 28.8386 24.6515 27.1077C23.8107 26.2392 23.2627 25.4121 22.9265 24.8066C22.7585 24.504 22.6436 24.2572 22.5716 24.089C22.5357 24.0049 22.5105 23.9405 22.4948 23.8987C22.487 23.8778 22.4815 23.8625 22.4783 23.8533C22.4766 23.8486 22.4756 23.8455 22.475 23.844C22.4748 23.8432 22.4746 23.8428 22.4746 23.8428C22.4746 23.8428 22.4747 23.8428 22.4747 23.843C22.4748 23.8431 22.4748 23.8434 22.4748 23.8434C22.4749 23.8437 22.475 23.8439 22 24ZM33.7796 32.3811C38.5515 33.0216 42.7205 30.9686 45.6605 28.8075C47.1352 27.7235 48.3159 26.6015 49.1281 25.7505C49.5346 25.3247 49.8497 24.9658 50.0641 24.7121C50.1714 24.5853 50.2535 24.4846 50.3094 24.415C50.3373 24.3802 50.3587 24.3531 50.3733 24.3344C50.3807 24.3251 50.3863 24.3178 50.3903 24.3127C50.3923 24.3101 50.3938 24.3081 50.395 24.3066C50.3955 24.3059 50.396 24.3053 50.3963 24.3048C50.3965 24.3046 50.3967 24.3044 50.3968 24.3042C50.3969 24.304 50.3971 24.3039 50 24C49.6029 23.6961 49.603 23.696 49.6031 23.696C49.603 23.696 49.6031 23.696 49.603 23.696C49.603 23.6961 49.6028 23.6963 49.6025 23.6967C49.6019 23.6974 49.6009 23.6987 49.5995 23.7005C49.5967 23.7042 49.5922 23.71 49.5861 23.7178C49.5738 23.7335 49.5548 23.7575 49.5294 23.7892C49.4786 23.8525 49.4019 23.9465 49.3004 24.0666C49.0975 24.3067 48.7958 24.6504 48.4048 25.0601C47.622 25.8802 46.4848 26.9605 45.0682 28.0018C42.2255 30.0914 38.3175 31.9812 33.9126 31.39L33.7796 32.3811Z" fill="#CCCCCC"/>
</svg>
