<svg width="16" height="16" viewBox="0 0 16 16" fill="none" xmlns="http://www.w3.org/2000/svg">
    <path
            d="M9.99964 4.99963L4.79289 10.2928C4.60536 10.4804 4.5 10.7347 4.5 10.9999C4.5 11.2652 4.60536 11.5195 4.79289 11.707C4.98043 11.8946 5.23478 11.9999 5.5 11.9999C5.76522 11.9999 6.01957 11.8946 6.20711 11.707L12.4139 5.41385C12.5996 5.22813 12.7469 5.00765 12.8474 4.765C12.9479 4.52235 12.9996 4.26228 12.9996 3.99963C12.9996 3.73699 12.9479 3.47692 12.8474 3.23427C12.7469 2.99162 12.5996 2.77114 12.4138 2.58542C12.2281 2.3997 12.0077 2.25238 11.765 2.15187C11.5224 2.05137 11.2623 1.99963 10.9996 1.99963C10.737 1.99963 10.4769 2.05137 10.2343 2.15187C9.99162 2.25238 9.77114 2.3997 9.58542 2.58542L3.37868 8.87862C2.81607 9.44123 2.5 10.2043 2.5 10.9999C2.5 11.7956 2.81607 12.5587 3.37868 13.1213C3.94129 13.6839 4.70435 13.9999 5.5 13.9999C6.29565 13.9999 7.05871 13.6839 7.62132 13.1213L12.7496 7.99964"
            stroke="black" stroke-linecap="round" stroke-linejoin="round"/>
</svg>