<svg width="110" height="84" viewBox="0 0 110 84" fill="none" xmlns="http://www.w3.org/2000/svg">
    <path
            d="M8.11723 23.2616C7.76556 22.2145 8.3293 21.0806 9.37639 20.7289L52.489 6.24918C53.5361 5.89751 54.67 6.46125 55.0217 7.50834L73.9123 63.7542C74.264 64.8013 73.7002 65.9352 72.6532 66.2869L29.5406 80.7666C28.4935 81.1183 27.3596 80.5545 27.0079 79.5074L8.11723 23.2616Z"
            fill="#838989"/>
    <path
            d="M3.16899 20.7876C2.81731 19.7405 3.38106 18.6066 4.42815 18.2549L47.5407 3.7752C48.5878 3.42352 49.7218 3.98727 50.0734 5.03436L68.9641 61.2802C69.3157 62.3273 68.752 63.4612 67.7049 63.8129L24.5923 78.2926C23.5452 78.6443 22.4113 78.0805 22.0596 77.0335L3.16899 20.7876Z"
            fill="#F4F4F4"/>
    <path fill-rule="evenodd" clip-rule="evenodd"
          d="M3.79185 16.359L46.9044 1.87928C48.9986 1.17593 51.2665 2.30342 51.9698 4.39761L70.8605 60.6434C71.5638 62.7376 70.4363 65.0055 68.3421 65.7088L25.2295 80.1886C23.1354 80.8919 20.8675 79.7644 20.1642 77.6702L1.27353 21.4244C0.570176 19.3302 1.69767 17.0624 3.79185 16.359ZM4.42861 18.2549C3.38152 18.6066 2.81778 19.7405 3.16945 20.7876L22.0601 77.0335C22.4118 78.0806 23.5457 78.6443 24.5928 78.2926L67.7054 63.8129C68.7525 63.4612 69.3162 62.3273 68.9645 61.2802L50.0739 5.03437C49.7222 3.98728 48.5883 3.42353 47.5412 3.77521L4.42861 18.2549Z"
          fill="#838989"/>
    <path fill-rule="evenodd" clip-rule="evenodd"
          d="M16.0797 28.9563C15.9038 28.4327 16.1857 27.8658 16.7092 27.6899L42.3894 19.065C42.913 18.8892 43.4799 19.1711 43.6558 19.6946C43.8316 20.2182 43.5497 20.7851 43.0262 20.961L17.346 29.5859C16.8225 29.7617 16.2555 29.4798 16.0797 28.9563Z"
          fill="#838989"/>
    <path fill-rule="evenodd" clip-rule="evenodd"
          d="M18.1274 35.0539C17.9515 34.5304 18.2334 33.9634 18.7569 33.7876L44.4371 25.1627C44.9607 24.9869 45.5276 25.2687 45.7035 25.7923C45.8793 26.3158 45.5974 26.8828 45.0739 27.0586L19.3937 35.6835C18.8702 35.8594 18.3032 35.5775 18.1274 35.0539Z"
          fill="#838989"/>
    <path fill-rule="evenodd" clip-rule="evenodd"
          d="M20.1758 41.1517C20 40.6282 20.2818 40.0612 20.8054 39.8854L46.4856 31.2605C47.0091 31.0846 47.5761 31.3665 47.7519 31.89C47.9277 32.4136 47.6459 32.9806 47.1223 33.1564L21.4421 41.7813C20.9186 41.9571 20.3516 41.6753 20.1758 41.1517Z"
          fill="#838989"/>
    <path fill-rule="evenodd" clip-rule="evenodd"
          d="M22.2235 47.2493C22.0477 46.7257 22.3296 46.1587 22.8531 45.9829L48.5333 37.358C49.0568 37.1822 49.6238 37.464 49.7996 37.9876C49.9755 38.5111 49.6936 39.0781 49.1701 39.2539L23.4899 47.8788C22.9663 48.0547 22.3994 47.7728 22.2235 47.2493Z"
          fill="#838989"/>
    <path fill-rule="evenodd" clip-rule="evenodd"
          d="M24.2712 53.3467C24.0954 52.8231 24.3773 52.2562 24.9008 52.0803L50.581 43.4554C51.1045 43.2796 51.6715 43.5614 51.8473 44.085C52.0232 44.6085 51.7413 45.1755 51.2178 45.3513L25.5376 53.9762C25.014 54.1521 24.4471 53.8702 24.2712 53.3467Z"
          fill="#838989"/>
    <path fill-rule="evenodd" clip-rule="evenodd"
          d="M38.5824 55.3172C38.7586 55.8407 38.4771 56.4078 37.9537 56.584L27.5859 60.0737C27.0625 60.2499 26.4953 59.9683 26.3192 59.4449C26.143 58.9215 26.4245 58.3543 26.9479 58.1782L37.3157 54.6885C37.8391 54.5123 38.4063 54.7938 38.5824 55.3172Z"
          fill="#838989"/>
    <path
            d="M58.8666 7.48182C59.1576 6.41627 60.2574 5.78838 61.3229 6.07939L105.195 18.0612C106.261 18.3522 106.889 19.4519 106.598 20.5175L90.966 77.7547C90.675 78.8202 89.5753 79.4481 88.5097 79.1571L44.6372 67.1753C43.5717 66.8843 42.9438 65.7846 43.2348 64.719L58.8666 7.48182Z"
            fill="#F4F4F4"/>
    <path fill-rule="evenodd" clip-rule="evenodd"
          d="M61.8499 4.15004L105.722 16.1319C107.853 16.7139 109.109 18.9133 108.527 21.0444L92.8954 78.2816C92.3134 80.4127 90.114 81.6685 87.9829 81.0865L44.1104 69.1046C41.9793 68.5226 40.7235 66.3232 41.3056 64.1921L56.9374 6.9549C57.5194 4.8238 59.7188 3.56803 61.8499 4.15004ZM61.323 6.07939C60.2574 5.78838 59.1577 6.41627 58.8667 7.48181L43.2349 64.719C42.9439 65.7846 43.5718 66.8843 44.6373 67.1753L88.5098 79.1571C89.5753 79.4481 90.675 78.8202 90.966 77.7547L106.598 20.5175C106.889 19.4519 106.261 18.3522 105.195 18.0612L61.323 6.07939Z"
          fill="#838989"/>
    <path
            d="M88.0108 39.3249C88.8825 38.8272 89.1857 37.717 88.688 36.8452C88.1903 35.9735 87.0801 35.6703 86.2083 36.168L75.5241 42.2683C74.5649 42.816 73.3433 42.4823 72.7956 41.5231L69.3759 35.5337C68.8782 34.662 67.768 34.3588 66.8962 34.8565C66.0244 35.3543 65.7212 36.4645 66.219 37.3362L70.6291 45.0603C70.6298 45.0615 70.6294 45.063 70.6282 45.0637C70.627 45.0643 70.6266 45.0659 70.6273 45.067L72.4273 48.2197C72.428 48.2208 72.4295 48.2213 72.4307 48.2206L72.4307 48.2206C72.4319 48.2199 72.4334 48.2203 72.434 48.2215C72.4347 48.2226 72.4362 48.223 72.4373 48.2224L75.59 46.4223C75.5912 46.4216 75.5916 46.4201 75.5909 46.419C75.5903 46.4178 75.5907 46.4163 75.5919 46.4157L88.0108 39.3249Z"
            fill="#F4F4F4"/>
</svg>