<svg width="18" height="18" viewBox="0 0 18 18" fill="none" xmlns="http://www.w3.org/2000/svg">
    <path d="M17.4537 7.06421C16.2904 5.16971 13.6444 1.99121 9.0004 1.99121C4.3564 1.99121 1.7104 5.16971 0.547155 7.06421C0.187551 7.64584 -0.00292969 8.31615 -0.00292969 8.99997C-0.00292969 9.68378 0.187551 10.3541 0.547155 10.9357C1.7104 12.8302 4.3564 16.0087 9.0004 16.0087C13.6444 16.0087 16.2904 12.8302 17.4537 10.9357C17.8133 10.3541 18.0037 9.68378 18.0037 8.99997C18.0037 8.31615 17.8133 7.64584 17.4537 7.06421ZM16.1749 10.1505C15.1759 11.775 12.9147 14.5087 9.0004 14.5087C5.08615 14.5087 2.8249 11.775 1.8259 10.1505C1.61226 9.80475 1.49909 9.40637 1.49909 8.99997C1.49909 8.59356 1.61226 8.19518 1.8259 7.84946C2.8249 6.22496 5.08615 3.49121 9.0004 3.49121C12.9147 3.49121 15.1759 6.22196 16.1749 7.84946C16.3885 8.19518 16.5017 8.59356 16.5017 8.99997C16.5017 9.40637 16.3885 9.80475 16.1749 10.1505Z" fill="var(--currentColor)"/>
    <path d="M9 5.25C8.25832 5.25 7.5333 5.46993 6.91661 5.88199C6.29993 6.29404 5.81928 6.87971 5.53545 7.56493C5.25162 8.25015 5.17736 9.00415 5.32206 9.73158C5.46675 10.459 5.8239 11.1272 6.34835 11.6516C6.8728 12.1761 7.54098 12.5332 8.26841 12.6779C8.99584 12.8226 9.74984 12.7484 10.4351 12.4645C11.1203 12.1807 11.706 11.7001 12.118 11.0834C12.5301 10.4667 12.75 9.74167 12.75 8.99999C12.7488 8.0058 12.3533 7.05266 11.6503 6.34966C10.9473 5.64666 9.9942 5.25119 9 5.25ZM9 11.25C8.55499 11.25 8.11998 11.118 7.74997 10.8708C7.37996 10.6236 7.09157 10.2722 6.92127 9.86103C6.75098 9.4499 6.70642 8.9975 6.79323 8.56104C6.88005 8.12458 7.09434 7.72367 7.40901 7.40901C7.72368 7.09434 8.12459 6.88005 8.56105 6.79323C8.99751 6.70641 9.44991 6.75097 9.86104 6.92127C10.2722 7.09156 10.6236 7.37995 10.8708 7.74996C11.118 8.11997 11.25 8.55499 11.25 8.99999C11.25 9.59673 11.0129 10.169 10.591 10.591C10.169 11.0129 9.59674 11.25 9 11.25Z" fill="var(--currentColor)"/>
</svg>