<svg width="18" height="18" viewBox="0 0 18 18" fill="none" xmlns="http://www.w3.org/2000/svg">
    <path d="M17.4537 7.06425C16.7766 5.95555 15.9225 4.9652 14.9254 4.13251L17.0254 2.03251C17.162 1.89106 17.2376 1.7016 17.2359 1.50496C17.2342 1.30831 17.1553 1.1202 17.0163 0.981144C16.8772 0.842088 16.6891 0.763212 16.4925 0.761503C16.2958 0.759794 16.1064 0.83539 15.9649 0.972008L13.6812 3.25876C12.2654 2.41787 10.647 1.97961 9.0004 1.99126C4.35715 1.99126 1.71115 5.16976 0.547155 7.06425C0.187551 7.64588 -0.00292969 8.31618 -0.00292969 9C-0.00292969 9.68382 0.187551 10.3541 0.547155 10.9358C1.22422 12.0445 2.07827 13.0348 3.0754 13.8675L0.975404 15.9675C0.903772 16.0367 0.846635 16.1194 0.807329 16.2109C0.768022 16.3024 0.747332 16.4009 0.746467 16.5004C0.745601 16.6 0.764578 16.6988 0.802288 16.791C0.839999 16.8831 0.895689 16.9669 0.966108 17.0373C1.03653 17.1077 1.12027 17.1634 1.21244 17.2011C1.30461 17.2388 1.40337 17.2578 1.50296 17.2569C1.60254 17.2561 1.70095 17.2354 1.79246 17.1961C1.88396 17.1568 1.96672 17.0996 2.0359 17.028L4.3249 14.739C5.73885 15.5797 7.35541 16.0188 9.0004 16.0087C13.6437 16.0087 16.2897 12.8303 17.4537 10.9358C17.8133 10.3541 18.0037 9.68382 18.0037 9C18.0037 8.31618 17.8133 7.64588 17.4537 7.06425ZM1.82515 10.1505C1.61151 9.80479 1.49834 9.40641 1.49834 9C1.49834 8.5936 1.61151 8.19522 1.82515 7.8495C2.82565 6.225 5.0869 3.49126 9.0004 3.49126C10.2456 3.48428 11.4733 3.78438 12.5749 4.36501L11.0652 5.87476C10.3451 5.39671 9.48183 5.1825 8.62183 5.26849C7.76182 5.35448 6.95805 5.73536 6.34691 6.34651C5.73576 6.95765 5.35488 7.76142 5.26889 8.62143C5.1829 9.48143 5.39711 10.3447 5.87515 11.0648L4.14265 12.7973C3.22398 12.0545 2.44003 11.1592 1.82515 10.1505ZM11.2504 9C11.2504 9.59674 11.0134 10.169 10.5914 10.591C10.1694 11.0129 9.59714 11.25 9.0004 11.25C8.66629 11.2487 8.3368 11.1718 8.03665 11.025L11.0254 8.03625C11.1722 8.3364 11.2491 8.66589 11.2504 9ZM6.7504 9C6.7504 8.40327 6.98746 7.83097 7.40941 7.40901C7.83137 6.98706 8.40367 6.75 9.0004 6.75C9.33452 6.7513 9.664 6.82822 9.96415 6.975L6.9754 9.96375C6.82862 9.6636 6.7517 9.33412 6.7504 9ZM16.1757 10.1505C15.1752 11.775 12.9139 14.5087 9.0004 14.5087C7.7552 14.5157 6.52748 14.2156 5.4259 13.635L6.93565 12.1253C7.6557 12.6033 8.51897 12.8175 9.37898 12.7315C10.239 12.6455 11.0428 12.2646 11.6539 11.6535C12.265 11.0424 12.6459 10.2386 12.7319 9.37858C12.8179 8.51857 12.6037 7.6553 12.1257 6.93525L13.8582 5.20276C14.7768 5.94547 15.5608 6.84079 16.1757 7.8495C16.3893 8.19522 16.5025 8.5936 16.5025 9C16.5025 9.40641 16.3893 9.80479 16.1757 10.1505Z" fill="#BBBFBF"/>
</svg>