<svg width="41" height="40" viewBox="0 0 41 40" fill="none" xmlns="http://www.w3.org/2000/svg">
    <path
            d="M5.5 32.5V10C5.5 9.66848 5.6317 9.35054 5.86612 9.11612C6.10054 8.8817 6.41848 8.75 6.75 8.75H15.0833C15.3538 8.75 15.617 8.83772 15.8333 9L20.1667 12.25C20.383 12.4123 20.6462 12.5 20.9167 12.5H31.75C32.0815 12.5 32.3995 12.6317 32.6339 12.8661C32.8683 13.1005 33 13.4185 33 13.75V17.5"
            stroke="#28B2AB" stroke-width="2" stroke-linecap="round" stroke-linejoin="round"/>
    <path
            d="M5.5 32.5L10.1857 20.7858C10.2785 20.5538 10.4386 20.355 10.6455 20.2149C10.8524 20.0749 11.0965 20 11.3463 20H18.8715C19.1183 20 19.3596 19.927 19.5649 19.7901L22.6851 17.7099C22.8904 17.573 23.1317 17.5 23.3785 17.5H36.2657C36.4638 17.5 36.659 17.5471 36.8353 17.6373C37.0116 17.7276 37.164 17.8584 37.2798 18.0191C37.3956 18.1798 37.4716 18.3657 37.5014 18.5615C37.5313 18.7573 37.5142 18.9574 37.4516 19.1453L33 32.5H5.5Z"
            stroke="#28B2AB" stroke-width="2" stroke-linecap="round" stroke-linejoin="round"/>
</svg>