<svg width="16" height="17" viewBox="0 0 16 17" fill="none" xmlns="http://www.w3.org/2000/svg">
    <path
            d="M8 8.66495C9.10457 8.66495 10 7.76952 10 6.66495C10 5.56038 9.10457 4.66495 8 4.66495C6.89543 4.66495 6 5.56038 6 6.66495C6 7.76952 6.89543 8.66495 8 8.66495Z"
            stroke="#28B2AB" stroke-width="1.5" stroke-linecap="round" stroke-linejoin="round"/>
    <path
            d="M13 6.66495C13 11.1649 8 14.6649 8 14.6649C8 14.6649 3 11.1649 3 6.66495C3 5.33887 3.52678 4.0671 4.46447 3.12941C5.40215 2.19173 6.67392 1.66495 8 1.66495C9.32608 1.66495 10.5979 2.19173 11.5355 3.12941C12.4732 4.0671 13 5.33887 13 6.66495V6.66495Z"
            stroke="#28B2AB" stroke-width="1.5" stroke-linecap="round" stroke-linejoin="round"/>
</svg>