<svg width="24" height="24" viewBox="0 0 24 24" fill="none" xmlns="http://www.w3.org/2000/svg">
    <path
            d="M21.7495 8.99281C21.7491 8.93547 21.742 8.87838 21.7283 8.82268C21.7268 8.8162 21.7248 8.80986 21.7231 8.80343C21.7174 8.78242 21.7107 8.7616 21.7032 8.74099C21.7003 8.73337 21.6975 8.72582 21.6944 8.71829C21.6866 8.69911 21.6778 8.6802 21.6683 8.66147C21.6646 8.65419 21.6612 8.64683 21.6573 8.63966C21.6461 8.61934 21.6337 8.59944 21.6205 8.5799C21.6175 8.57557 21.6151 8.57097 21.612 8.56672L21.6107 8.56456C21.5945 8.54209 21.5771 8.5205 21.5587 8.4999C21.5546 8.49537 21.5501 8.49125 21.5459 8.48681C21.5301 8.46999 21.5138 8.45392 21.4969 8.43884C21.4911 8.4338 21.4852 8.42902 21.4794 8.42414C21.4621 8.40972 21.4443 8.39619 21.426 8.38354C21.4225 8.38113 21.4195 8.3783 21.416 8.37596L12.416 2.37596C12.2928 2.29385 12.1481 2.25003 12 2.25003C11.8519 2.25003 11.7072 2.29385 11.584 2.37596L2.58398 8.37596C2.5806 8.37821 2.57771 8.38095 2.57442 8.38324C2.55584 8.39606 2.53782 8.40976 2.52036 8.42435C2.51464 8.42911 2.50887 8.43375 2.50333 8.43868C2.48616 8.4539 2.46969 8.4701 2.4538 8.48711C2.44973 8.49141 2.44538 8.49544 2.4414 8.49983C2.42288 8.52044 2.40551 8.54205 2.38935 8.56456L2.38797 8.56672C2.38495 8.57097 2.38248 8.57557 2.37955 8.5799C2.36628 8.59945 2.35387 8.61934 2.3427 8.63966C2.33881 8.64683 2.33538 8.65419 2.33167 8.66147C2.32219 8.6802 2.3134 8.6991 2.30558 8.71829C2.30256 8.72582 2.29967 8.73337 2.29683 8.74099C2.28924 8.76162 2.2826 8.78243 2.27692 8.80343C2.27518 8.80986 2.27321 8.8162 2.27166 8.82268C2.25805 8.87838 2.25094 8.93547 2.25046 8.99281C2.25041 8.99523 2.25 8.99757 2.25 8.99999V18.75C2.25045 19.1477 2.40864 19.5289 2.68984 19.8102C2.97105 20.0914 3.35231 20.2495 3.75 20.25H20.25C20.6477 20.2495 21.029 20.0914 21.3102 19.8102C21.5914 19.5289 21.7495 19.1477 21.75 18.75V8.99999C21.75 8.99757 21.7496 8.99523 21.7495 8.99281ZM3.75 10.4558L9.06775 14.2472L3.75 18.0034V10.4558ZM10.6018 15H13.3982L18.7072 18.75H5.29289L10.6018 15ZM14.9323 14.2472L20.25 10.4558V18.0034L14.9323 14.2472Z"
            fill="#28B2AB"/>
</svg>