<svg width="24" height="24" viewBox="0 0 24 24" fill="none" xmlns="http://www.w3.org/2000/svg">
    <path
            d="M21.4394 8.24988C21.4399 8.05282 21.4013 7.85761 21.3259 7.67555C21.2505 7.49349 21.1397 7.3282 21 7.18924L16.8106 2.99979C16.5291 2.71898 16.1476 2.56129 15.7499 2.56131C15.3523 2.56133 14.9708 2.71905 14.6893 2.99988L3.43927 14.2499C3.29385 14.3953 3.17997 14.5691 3.10474 14.7605C3.09505 14.7838 3.08656 14.8075 3.07928 14.8317C3.02705 14.9859 3.00027 15.1477 3 15.3105V19.4999C3.00045 19.8976 3.15864 20.2788 3.43984 20.56C3.72105 20.8412 4.10231 20.9994 4.5 20.9999H8.68936C8.85392 20.9996 9.01731 20.9722 9.17299 20.9189C9.19533 20.912 9.21741 20.9042 9.23916 20.8952C9.43066 20.82 9.60457 20.7061 9.75 20.5605L17.5937 12.7168L17.9194 14.0198L14.4696 17.4696C14.4 17.5392 14.3447 17.6219 14.3071 17.7129C14.2694 17.8039 14.25 17.9014 14.25 17.9999C14.25 18.0984 14.2694 18.1959 14.3071 18.2869C14.3448 18.3779 14.4 18.4606 14.4697 18.5303C14.5393 18.5999 14.622 18.6551 14.713 18.6928C14.804 18.7305 14.9015 18.7499 15 18.7499C15.0985 18.7499 15.1961 18.7305 15.287 18.6928C15.378 18.6551 15.4607 18.5999 15.5304 18.5302L19.2804 14.7802C19.3719 14.6886 19.4382 14.5749 19.4728 14.4501C19.5073 14.3252 19.509 14.1936 19.4776 14.068L18.8306 11.48L20.9999 9.31061C21.1397 9.17165 21.2505 9.00635 21.3259 8.82427C21.4013 8.6422 21.4399 8.44697 21.4394 8.24988ZM18 10.1892L13.8107 5.99988L15.75 4.06052L19.9393 8.24988L18 10.1892Z"
            fill="#BBBFBF"/>
</svg>