<svg width="16" height="16" viewBox="0 0 16 16" fill="none" xmlns="http://www.w3.org/2000/svg">
    <g clip-path="url(#clip0_100_2731)">
        <path
                d="M0 9.8064V11.9225C0 12.7999 0.696774 13.4193 1.54839 13.4193H14.4516C15.3032 13.4193 16 12.7999 16 11.9225V9.8064H0Z"
                fill="#1EB53A"/>
        <path
                d="M14.4516 2.58057H1.54839C0.696774 2.58057 0 3.19992 0 4.07734V6.19347H16V4.07734C16 3.19992 15.3032 2.58057 14.4516 2.58057Z"
                fill="#0099B5"/>
        <path d="M16 6.1936H0V9.80651H16V6.1936Z" fill="white"/>
        <path d="M14.4514 13.4193C15.303 13.4193 15.9997 12.7999 15.9997 11.9225V9.8064H10.1675L14.4514 13.4193Z"
              fill="#11A325"/>
        <path d="M14.4516 2.58057H1.54834L5.8064 6.19347H16V4.07734C16 3.19992 15.3032 2.58057 14.4516 2.58057Z"
              fill="#078C9E"/>
        <path d="M10.1679 9.80651H16.0002V6.1936H5.80664L10.1679 9.80651Z" fill="#E1EAE2"/>
        <path d="M14.4516 2.58057H1.54834L13.4967 6.19347H16V4.07734C16 3.19992 15.3032 2.58057 14.4516 2.58057Z"
              fill="#048089"/>
        <path d="M15.9999 6.91618V6.1936H13.3677L15.9999 6.91618Z" fill="#C2CEC3"/>
        <path
                d="M16 11.8967C16 12.8773 15.3032 13.4192 14.4516 13.4192H1.54839C0.696774 13.4192 0 12.7483 0 11.8708"
                fill="#098914"/>
        <path d="M16 5.93555H0V6.19361H16V5.93555Z" fill="#CE1126"/>
        <path d="M5.80668 6.19361H16.0002V5.93555H5.47119L5.80668 6.19361Z" fill="#A8071E"/>
        <path d="M16 9.8064H0V10.0645H16V9.8064Z" fill="#CE1126"/>
        <path d="M10.1675 9.8064L10.4772 10.0645H15.9997V9.8064H10.1675Z" fill="#A8071E"/>
        <path
                d="M2.42594 3.30339C2.37432 3.30339 2.32271 3.27759 2.2711 3.27759C1.72916 3.27759 1.26465 3.7163 1.26465 4.28404C1.26465 4.85179 1.70336 5.2905 2.2711 5.2905C2.32271 5.2905 2.37432 5.2905 2.42594 5.26469C1.96142 5.18727 1.60013 4.77437 1.60013 4.28404C1.60013 3.76791 1.96142 3.38081 2.42594 3.30339Z"
                fill="white"/>
        <path
                d="M2.91634 5.00672L2.86473 4.87769L2.81311 5.00672H2.68408L2.78731 5.10994L2.7615 5.23898L2.86473 5.16156L2.99376 5.23898L2.94215 5.10994L3.07118 5.00672H2.91634Z"
                fill="white"/>
        <path
                d="M3.71614 5.00672L3.66453 4.87769L3.61292 5.00672H3.48389L3.58711 5.10994L3.56131 5.23898L3.66453 5.16156L3.79356 5.23898L3.74195 5.10994L3.84518 5.00672H3.71614Z"
                fill="white"/>
        <path
                d="M4.51644 5.00672L4.46482 4.87769L4.41321 5.00672H4.28418L4.38741 5.10994L4.33579 5.23898L4.46482 5.16156L4.59386 5.23898L4.54224 5.10994L4.64547 5.00672H4.51644Z"
                fill="white"/>
        <path
                d="M5.31624 5.00672L5.26463 4.87769L5.21302 5.00672H5.08398L5.18721 5.10994L5.1356 5.23898L5.26463 5.16156L5.39366 5.23898L5.34205 5.10994L5.44527 5.00672H5.31624Z"
                fill="white"/>
        <path
                d="M6.11605 5.00672L6.06443 4.87769L6.01282 5.00672H5.88379L5.98702 5.10994L5.9354 5.23898L6.06443 5.16156L6.16766 5.23898L6.14185 5.10994L6.24508 5.00672H6.11605Z"
                fill="white"/>
        <path
                d="M3.66453 4.07764L3.63873 4.20667H3.48389L3.61292 4.30989L3.56131 4.43892L3.66453 4.3615L3.79356 4.43892L3.74195 4.30989L3.87098 4.20667H3.71614L3.66453 4.07764Z"
                fill="white"/>
        <path
                d="M4.46482 4.07764L4.43902 4.20667H4.28418L4.41321 4.30989L4.3616 4.43892L4.46482 4.3615L4.59386 4.43892L4.54224 4.30989L4.67128 4.20667H4.51644L4.46482 4.07764Z"
                fill="white"/>
        <path
                d="M5.26463 4.07764L5.23882 4.20667H5.08398L5.21302 4.30989L5.1614 4.43892L5.26463 4.3615L5.39366 4.43892L5.34205 4.30989L5.47108 4.20667H5.31624L5.26463 4.07764Z"
                fill="white"/>
        <path
                d="M6.11605 4.20667L6.06443 4.07764L6.03863 4.20667H5.88379L5.98702 4.30989L5.96121 4.43892L6.06443 4.3615L6.19347 4.43892L6.14185 4.30989L6.27089 4.20667H6.11605Z"
                fill="white"/>
        <path
                d="M4.38733 3.50985L4.33572 3.63888L4.46475 3.56146L4.56798 3.63888L4.54217 3.50985L4.6454 3.40662H4.51637L4.46475 3.27759L4.41314 3.40662H4.2583L4.38733 3.50985Z"
                fill="white"/>
        <path
                d="M5.18714 3.50985L5.13552 3.63888L5.26456 3.56146L5.36778 3.63888L5.34198 3.50985L5.4452 3.40662H5.31617L5.26456 3.27759L5.21294 3.40662H5.05811L5.18714 3.50985Z"
                fill="white"/>
        <path
                d="M5.98743 3.50985L5.93582 3.63888L6.06485 3.56146L6.16808 3.63888L6.14227 3.50985L6.2455 3.40662H6.09066L6.06485 3.27759L6.01324 3.40662H5.8584L5.98743 3.50985Z"
                fill="white"/>
    </g>
    <defs>
        <clipPath id="clip0_100_2731">
            <rect width="16" height="16" fill="white"/>
        </clipPath>
    </defs>
</svg>