<svg width="22" height="12" viewBox="0 0 22 12" fill="none" xmlns="http://www.w3.org/2000/svg">
    <path
            d="M6.48338 3.184C7.56071 3.184 8.42471 3.504 9.07538 4.144C9.73671 4.784 10.0674 5.74933 10.0674 7.04V12H7.02738V7.536C7.02738 6.352 6.55271 5.76 5.60338 5.76C5.08071 5.76 4.65938 5.93067 4.33938 6.272C4.03004 6.61333 3.87538 7.12533 3.87538 7.808V12H0.835375V0.127999H3.87538V4.128C4.20604 3.81867 4.59538 3.584 5.04338 3.424C5.49138 3.264 5.97138 3.184 6.48338 3.184ZM17.624 3.184C18.7013 3.184 19.5653 3.504 20.216 4.144C20.8773 4.784 21.208 5.74933 21.208 7.04V12H18.168V7.536C18.168 6.352 17.6933 5.76 16.744 5.76C16.2213 5.76 15.8 5.93067 15.48 6.272C15.1707 6.61333 15.016 7.12533 15.016 7.808V12H11.976V0.127999H15.016V4.128C15.3467 3.81867 15.736 3.584 16.184 3.424C16.632 3.264 17.112 3.184 17.624 3.184Z"
            fill="#151717"/>
</svg>