<svg width="16" height="14" viewBox="0 0 16 14" fill="none" xmlns="http://www.w3.org/2000/svg">
    <path fill-rule="evenodd" clip-rule="evenodd"
          d="M12.256 13.1858C12.4709 13.3378 12.7474 13.3755 12.9943 13.2829C13.24 13.1892 13.4217 12.9778 13.4766 12.7218C14.056 9.99953 15.4617 3.10822 15.9885 0.632836C16.0285 0.445411 15.9622 0.251128 15.816 0.126559C15.6685 0.00198932 15.4651 -0.0334384 15.2845 0.0328462C12.4892 1.06826 3.88017 4.29791 0.361369 5.59961C0.138516 5.68303 -0.00662416 5.89674 0.000232864 6.13331C0.00823273 6.36874 0.167087 6.57331 0.395655 6.64188C1.97391 7.11387 4.04473 7.771 4.04473 7.771C4.04473 7.771 5.01272 10.6944 5.51671 12.1801C5.58071 12.3675 5.72699 12.5138 5.91899 12.5641C6.11213 12.6143 6.31669 12.5618 6.46069 12.4258C7.27096 11.6612 8.52351 10.4784 8.52351 10.4784C8.52351 10.4784 10.9052 12.2235 12.256 13.1858ZM4.91558 7.40072L6.03556 11.0932L6.2847 8.75498C6.2847 8.75498 10.608 4.85448 13.0743 2.63166C13.1463 2.56652 13.1554 2.4568 13.096 2.38023C13.0366 2.30366 12.9269 2.28538 12.8457 2.33795C9.98863 4.16192 4.91558 7.40072 4.91558 7.40072Z"
          fill="#151717"/>
</svg>