<svg width="30" height="34"
     viewBox="0 0 30 34" fill="none" xmlns="http://www.w3.org/2000/svg">
    <mask id="mask0_0_247" style="mask-type:alpha" maskUnits="userSpaceOnUse" x="0" y="0" width="30" height="34">
        <path
                d="M27.5735 33.5H2.42647C1.08637 33.5 0 32.4447 0 31.1429V2.85714C0 1.55533 1.08637 0.5 2.42647 0.5H18.75L30 11.4286V31.1429C30 32.4447 28.9136 33.5 27.5735 33.5Z"
                fill="url(#paint0_linear_0_247)"/>
    </mask>
    <g mask="url(#mask0_0_247)">
        <path
                d="M27.5735 33.5H2.42647C1.08637 33.5 0 32.4447 0 31.1429V2.85714C0 1.55533 1.08637 0.5 2.42647 0.5H18.75L30 11.4286V31.1429C30 32.4447 28.9136 33.5 27.5735 33.5Z"
                fill="url(#paint1_linear_0_247)"/>
        <g opacity="0.27" filter="url(#filter0_f_0_247)">
            <path d="M5.29411 16.4643H24.9265V25.4643H5.29411V16.4643Z" fill="#0072A2" style="mix-blend-mode:darken"/>
        </g>
        <path
                d="M5.79088 23.7501C5.68052 23.7501 5.58758 23.7134 5.51206 23.6401C5.43655 23.5667 5.39879 23.4764 5.39879 23.3692V18.2314C5.39879 18.1242 5.43655 18.0339 5.51206 17.9605C5.58758 17.8815 5.68052 17.842 5.79088 17.842H7.54224C8.20445 17.842 8.765 17.9859 9.2239 18.2737C9.6886 18.5558 10.0371 18.9226 10.2695 19.3741C10.5018 19.8255 10.618 20.2995 10.618 20.7961C10.618 21.2926 10.5018 21.7666 10.2695 22.2181C10.0371 22.6695 9.6886 23.0391 9.2239 23.3269C8.765 23.609 8.20445 23.7501 7.54224 23.7501H5.79088ZM7.4464 23.0306C7.92272 23.0306 8.34096 22.9375 8.7011 22.7513C9.06125 22.5595 9.34008 22.2971 9.53757 21.9641C9.73507 21.6256 9.83382 21.2362 9.83382 20.7961C9.83382 20.3559 9.73507 19.9694 9.53757 19.6365C9.34008 19.2979 9.06125 19.0355 8.7011 18.8493C8.34096 18.6574 7.92272 18.5615 7.4464 18.5615H6.19169V23.0306H7.4464Z"
                fill="white"/>
        <path
                d="M15.2445 23.8347C14.6346 23.8347 14.1002 23.705 13.6413 23.4454C13.1824 23.1858 12.8281 22.8275 12.5783 22.3704C12.3285 21.9134 12.1978 21.3886 12.1862 20.7961C12.1978 20.2036 12.3285 19.6788 12.5783 19.2217C12.8281 18.7646 13.1824 18.4063 13.6413 18.1467C14.1002 17.8872 14.6346 17.7574 15.2445 17.7574C15.8545 17.7574 16.386 17.8872 16.8391 18.1467C17.298 18.4063 17.6523 18.7675 17.9021 19.2302C18.1577 19.6872 18.2913 20.2092 18.3029 20.7961C18.2913 21.3829 18.1577 21.9077 17.9021 22.3704C17.6523 22.8275 17.298 23.1858 16.8391 23.4454C16.386 23.705 15.8545 23.8347 15.2445 23.8347ZM15.2445 23.1153C15.7092 23.1153 16.113 23.0137 16.4557 22.8106C16.7984 22.6074 17.0598 22.3309 17.2399 21.9811C17.4199 21.6312 17.51 21.2362 17.51 20.7961C17.51 20.3559 17.4199 19.9609 17.2399 19.6111C17.0598 19.2612 16.7984 18.9847 16.4557 18.7816C16.113 18.5784 15.7092 18.4768 15.2445 18.4768C14.774 18.4768 14.3674 18.5784 14.0247 18.7816C13.6878 18.9847 13.4293 19.2612 13.2492 19.6111C13.0691 19.9609 12.9791 20.3559 12.9791 20.7961C12.9791 21.2362 13.0691 21.6312 13.2492 21.9811C13.4293 22.3309 13.6878 22.6074 14.0247 22.8106C14.3674 23.0137 14.774 23.1153 15.2445 23.1153Z"
                fill="white"/>
        <path
                d="M22.9167 23.8347C22.3359 23.8347 21.8131 23.7134 21.3484 23.4708C20.8895 23.2225 20.5264 22.8698 20.2592 22.4127C19.9978 21.95 19.8671 21.4111 19.8671 20.7961C19.8671 20.181 19.9978 19.6449 20.2592 19.1878C20.5264 18.7251 20.8895 18.3725 21.3484 18.1298C21.8131 17.8815 22.3359 17.7574 22.9167 17.7574C23.3117 17.7574 23.6632 17.8025 23.971 17.8928C24.2847 17.9831 24.5955 18.1129 24.9034 18.2822C25.0312 18.3499 25.0951 18.4571 25.0951 18.6038C25.0951 18.6885 25.0631 18.7646 24.9992 18.8323C24.9353 18.8944 24.8511 18.9255 24.7465 18.9255C24.6884 18.9255 24.6362 18.9142 24.5897 18.8916C24.3341 18.7618 24.0843 18.6631 23.8403 18.5953C23.5964 18.5276 23.3147 18.4938 22.9952 18.4938C22.4956 18.4938 22.0687 18.5953 21.7143 18.7985C21.3658 18.996 21.1015 19.2697 20.9214 19.6195C20.7472 19.9637 20.66 20.3559 20.66 20.7961C20.66 21.2362 20.7472 21.6312 20.9214 21.9811C21.1015 22.3253 21.3658 22.599 21.7143 22.8021C22.0687 22.9996 22.4956 23.0984 22.9952 23.0984C23.3147 23.0984 23.5964 23.0645 23.8403 22.9968C24.0843 22.9291 24.3341 22.8303 24.5897 22.7005C24.6362 22.678 24.6884 22.6667 24.7465 22.6667C24.8511 22.6667 24.9353 22.6977 24.9992 22.7598C25.0631 22.8219 25.0951 22.898 25.0951 22.9883C25.0951 23.135 25.0312 23.2422 24.9034 23.31C24.5955 23.4792 24.2847 23.609 23.971 23.6993C23.6632 23.7896 23.3117 23.8347 22.9167 23.8347Z"
                fill="white"/>
        <path fill-rule="evenodd" clip-rule="evenodd"
              d="M9.34247 23.5076L9.34186 23.508C8.84063 23.8162 8.23701 23.9644 7.54224 23.9644H5.79088C5.62419 23.9644 5.47448 23.9066 5.35607 23.7916C5.23767 23.6766 5.17819 23.5312 5.17819 23.3692V18.2314C5.17819 18.0708 5.2367 17.9265 5.35319 17.8119C5.46979 17.6914 5.62014 17.6278 5.79088 17.6278H7.54224C8.23716 17.6278 8.84094 17.779 9.34215 18.0929C9.83864 18.3946 10.2155 18.7901 10.4668 19.2783C10.7142 19.759 10.8386 20.2657 10.8386 20.7961C10.8386 21.3265 10.7142 21.8333 10.4668 22.3139C10.2155 22.8022 9.83871 23.2003 9.34247 23.5076ZM5.51205 17.9606C5.43654 18.0339 5.39878 18.1242 5.39878 18.2314V23.3692C5.39878 23.4765 5.43654 23.5667 5.51205 23.6401C5.58757 23.7135 5.68051 23.7501 5.79088 23.7501H7.54224C8.20444 23.7501 8.76499 23.6091 9.22389 23.3269C9.6886 23.0391 10.0371 22.6695 10.2695 22.2181C10.5018 21.7667 10.618 21.2927 10.618 20.7961C10.618 20.2995 10.5018 19.8255 10.2695 19.3741C10.0371 18.9227 9.6886 18.5559 9.22389 18.2738C8.76499 17.986 8.20444 17.8421 7.54224 17.8421H5.79088C5.68051 17.8421 5.58757 17.8816 5.51205 17.9606ZM9.34604 19.7428L9.34565 19.7421C9.16921 19.4397 8.92133 19.2059 8.59745 19.0385L8.59624 19.0379L8.59503 19.0372C8.27225 18.8653 7.8916 18.7758 7.44639 18.7758H6.41227V22.8164H7.44639C7.89208 22.8164 8.27322 22.7296 8.59624 22.5628C8.92152 22.3893 9.16976 22.1547 9.34603 21.8579C9.52213 21.5557 9.61323 21.2039 9.61323 20.7961C9.61323 20.388 9.52198 20.0394 9.34644 19.7435L9.34604 19.7428ZM9.53757 21.9642C9.34007 22.2971 9.06124 22.5595 8.7011 22.7514C8.34095 22.9376 7.92271 23.0307 7.44639 23.0307H6.19168V18.5615H7.44639C7.92271 18.5615 8.34095 18.6575 8.7011 18.8493C9.06124 19.0355 9.34007 19.2979 9.53757 19.6365C9.73507 19.9694 9.83382 20.356 9.83382 20.7961C9.83382 21.2363 9.73507 21.6256 9.53757 21.9642ZM11.9656 20.7961L11.9656 20.792C11.9778 20.1708 12.1152 19.6121 12.3834 19.1213C12.6524 18.6291 13.0358 18.2413 13.5303 17.9616C14.0276 17.6803 14.6015 17.5432 15.2445 17.5432C15.8873 17.5432 16.4586 17.6802 16.9506 17.9619C17.4451 18.2418 17.828 18.6322 18.0967 19.1293C18.3707 19.6199 18.5112 20.1758 18.5234 20.792L18.5235 20.7961L18.5234 20.8002C18.5112 21.4168 18.3705 21.9754 18.0967 22.4713C17.8278 22.9632 17.4447 23.3507 16.9505 23.6303C16.4585 23.9121 15.8872 24.0491 15.2445 24.0491C14.6015 24.0491 14.0276 23.9119 13.5303 23.6306C13.0358 23.3509 12.6524 22.9632 12.3834 22.4709C12.1152 21.9801 11.9778 21.4214 11.9656 20.8002L11.9656 20.7961ZM16.8391 18.1468C16.386 17.8872 15.8545 17.7574 15.2445 17.7574C14.6346 17.7574 14.1002 17.8872 13.6413 18.1468C13.1824 18.4064 12.8281 18.7647 12.5783 19.2218C12.3285 19.6788 12.1978 20.2036 12.1862 20.7961C12.1978 21.3886 12.3285 21.9134 12.5783 22.3705C12.8281 22.8275 13.1824 23.1859 13.6413 23.4454C14.1002 23.705 14.6346 23.8348 15.2445 23.8348C15.8545 23.8348 16.386 23.705 16.8391 23.4454C17.298 23.1859 17.6523 22.8275 17.9021 22.3705C18.1577 21.9077 18.2913 21.383 18.3029 20.7961C18.2913 20.2093 18.1577 19.6873 17.9021 19.2302C17.6523 18.7675 17.298 18.4064 16.8391 18.1468ZM15.2445 22.901C15.6752 22.901 16.0378 22.8073 16.3408 22.6277C16.6481 22.4455 16.8809 22.1993 17.0426 21.8853C17.2055 21.5687 17.2894 21.2072 17.2894 20.7961C17.2894 20.385 17.2055 20.0235 17.0426 19.7069C16.8809 19.3929 16.6481 19.1467 16.3408 18.9645C16.0378 18.785 15.6752 18.6912 15.2445 18.6912C14.8078 18.6912 14.4427 18.7851 14.1403 18.9641C13.839 19.146 13.6085 19.3922 13.4465 19.7069C13.2836 20.0235 13.1997 20.385 13.1997 20.7961C13.1997 21.2072 13.2836 21.5687 13.4465 21.8853C13.6085 22.2 13.839 22.4462 14.1403 22.6281C14.4427 22.8072 14.8078 22.901 15.2445 22.901ZM14.0247 18.7816C14.3674 18.5785 14.774 18.4769 15.2445 18.4769C15.7092 18.4769 16.113 18.5785 16.4557 18.7816C16.7984 18.9848 17.0598 19.2613 17.2399 19.6111C17.4199 19.961 17.51 20.356 17.51 20.7961C17.51 21.2363 17.4199 21.6312 17.2399 21.9811C17.0598 22.331 16.7984 22.6075 16.4557 22.8106C16.113 23.0137 15.7092 23.1153 15.2445 23.1153C14.774 23.1153 14.3674 23.0137 14.0247 22.8106C13.6878 22.6075 13.4293 22.331 13.2492 21.9811C13.0691 21.6312 12.9791 21.2363 12.9791 20.7961C12.9791 20.356 13.0691 19.961 13.2492 19.6111C13.4293 19.2613 13.6878 18.9848 14.0247 18.7816ZM21.2425 23.6588L21.241 23.658C20.7457 23.39 20.3539 23.0087 20.0674 22.5186L20.0666 22.5172L20.0658 22.5159C19.7838 22.0167 19.6465 21.4412 19.6465 20.7961C19.6465 20.1511 19.7838 19.5779 20.0664 19.0838L20.0668 19.0831C20.3533 18.587 20.7456 18.2047 21.2425 17.9419C21.7427 17.6747 22.3025 17.5432 22.9167 17.5432C23.3284 17.5432 23.7017 17.5901 24.0342 17.6876C24.3645 17.7827 24.69 17.9188 25.0106 18.095C25.1042 18.1449 25.1834 18.2144 25.238 18.3061C25.2927 18.3978 25.3156 18.4998 25.3156 18.6039C25.3156 18.7469 25.2595 18.8736 25.1618 18.9772L25.1586 18.9806L25.1552 18.9839C25.0434 19.0925 24.8996 19.1398 24.7465 19.1398C24.6583 19.1398 24.5716 19.1224 24.491 19.0833L24.4893 19.0824L24.4875 19.0816C24.2434 18.9576 24.0075 18.8647 23.7797 18.8014C23.5598 18.7404 23.2992 18.7081 22.9952 18.7081C22.5266 18.7081 22.1402 18.8032 21.8264 18.9831L21.8255 18.9836C21.5141 19.1601 21.2799 19.4026 21.119 19.7148C20.9619 20.0254 20.8806 20.3842 20.8806 20.7961C20.8806 21.2074 20.9617 21.5692 21.119 21.8859C21.2795 22.1919 21.5137 22.4349 21.826 22.6173C22.1399 22.7918 22.5265 22.8841 22.9952 22.8841C23.2992 22.8841 23.5598 22.8518 23.7797 22.7908C24.0075 22.7276 24.2434 22.6346 24.4875 22.5107L24.4893 22.5098L24.491 22.5089C24.5716 22.4698 24.6583 22.4524 24.7465 22.4524C24.8996 22.4524 25.0434 22.4997 25.1552 22.6083C25.2617 22.7118 25.3156 22.8431 25.3156 22.9884C25.3156 23.0924 25.2927 23.1944 25.238 23.2862C25.1834 23.3778 25.1042 23.4473 25.0107 23.4972C24.6901 23.6734 24.3646 23.8095 24.0343 23.9046C23.7018 24.0021 23.3284 24.0491 22.9167 24.0491C22.3032 24.0491 21.7439 23.9206 21.2439 23.6596L21.2425 23.6588ZM23.971 23.6994C24.2847 23.6091 24.5955 23.4793 24.9034 23.31C25.0312 23.2423 25.095 23.1351 25.095 22.9884C25.095 22.8981 25.0631 22.8219 24.9992 22.7598C24.9353 22.6977 24.8511 22.6667 24.7465 22.6667C24.6884 22.6667 24.6362 22.678 24.5897 22.7006C24.3341 22.8304 24.0843 22.9291 23.8403 22.9968C23.5964 23.0645 23.3146 23.0984 22.9952 23.0984C22.4956 23.0984 22.0687 22.9996 21.7143 22.8021C21.3658 22.599 21.1015 22.3253 20.9214 21.9811C20.7471 21.6312 20.66 21.2363 20.66 20.7961C20.66 20.356 20.7471 19.9638 20.9214 19.6196C21.1015 19.2697 21.3658 18.996 21.7143 18.7985C22.0687 18.5954 22.4956 18.4938 22.9952 18.4938C23.3146 18.4938 23.5964 18.5277 23.8403 18.5954C24.0843 18.6631 24.3341 18.7619 24.5897 18.8916C24.6362 18.9142 24.6884 18.9255 24.7465 18.9255C24.8511 18.9255 24.9353 18.8945 24.9992 18.8324C25.0631 18.7647 25.095 18.6885 25.095 18.6039C25.095 18.4571 25.0312 18.3499 24.9034 18.2822C24.5955 18.1129 24.2847 17.9832 23.971 17.8929C23.6632 17.8026 23.3117 17.7574 22.9167 17.7574C22.3359 17.7574 21.8131 17.8816 21.3484 18.1299C20.8895 18.3725 20.5264 18.7252 20.2592 19.1879C19.9978 19.645 19.8671 20.181 19.8671 20.7961C19.8671 21.4112 19.9978 21.9501 20.2592 22.4128C20.5264 22.8699 20.8895 23.2225 21.3484 23.4708C21.8131 23.7135 22.3359 23.8348 22.9167 23.8348C23.3117 23.8348 23.6632 23.7896 23.971 23.6994Z"
              fill="white"/>
        <mask id="mask1_0_247" style="mask-type:alpha" maskUnits="userSpaceOnUse" x="0" y="0" width="30" height="34">
            <path
                    d="M27.5735 33.5H2.42647C1.08637 33.5 0 32.4447 0 31.1429V2.85714C0 1.55533 1.08637 0.5 2.42647 0.5H18.75L30 11.4286V31.1429C30 32.4447 28.9136 33.5 27.5735 33.5Z"
                    fill="url(#paint2_linear_0_247)"/>
        </mask>
        <g mask="url(#mask1_0_247)">
            <path opacity="0.05"
                  d="M23.0515 -0.839268C23.0515 11.8534 12.015 22.1429 -1.59926 22.1429C-15.2135 22.1429 -26.25 11.8534 -26.25 -0.839268C-26.25 -13.532 -15.2135 -23.8214 -1.59926 -23.8214C12.015 -23.8214 23.0515 -13.532 23.0515 -0.839268Z"
                  fill="url(#paint3_linear_0_247)"/>
            <path opacity="0.07"
                  d="M13.8971 -0.839286C13.8971 7.11953 6.95912 13.5714 -1.59927 13.5714C-10.1576 13.5714 -17.0956 7.11953 -17.0956 -0.839286C-17.0956 -8.7981 -10.1576 -15.25 -1.59927 -15.25C6.95912 -15.25 13.8971 -8.7981 13.8971 -0.839286Z"
                  fill="url(#paint4_linear_0_247)"/>
        </g>
        <g filter="url(#filter1_d_0_247)">
            <path d="M30 11.4286H21.1765C19.8364 11.4286 18.75 10.3732 18.75 9.07143V0.5L30 11.4286Z"
                  fill="url(#paint5_linear_0_247)"/>
        </g>
    </g>
    <defs>
        <filter id="filter0_f_0_247" x="-33.7059" y="-22.5357" width="97.6324" height="87"
                filterUnits="userSpaceOnUse" color-interpolation-filters="sRGB">
            <feFlood flood-opacity="0" result="BackgroundImageFix"/>
            <feBlend mode="normal" in="SourceGraphic" in2="BackgroundImageFix" result="shape"/>
            <feGaussianBlur stdDeviation="19.5" result="effect1_foregroundBlur_0_247"/>
        </filter>
        <filter id="filter1_d_0_247" x="-4.25" y="-23.5" width="61.25" height="60.9286" filterUnits="userSpaceOnUse"
                color-interpolation-filters="sRGB">
            <feFlood flood-opacity="0" result="BackgroundImageFix"/>
            <feColorMatrix in="SourceAlpha" type="matrix" values="0 0 0 0 0 0 0 0 0 0 0 0 0 0 0 0 0 0 127 0"
                           result="hardAlpha"/>
            <feOffset dx="2" dy="1"/>
            <feGaussianBlur stdDeviation="12.5"/>
            <feColorMatrix type="matrix" values="0 0 0 0 0 0 0 0 0 0 0 0 0 0 0 0 0 0 0.33 0"/>
            <feBlend mode="normal" in2="BackgroundImageFix" result="effect1_dropShadow_0_247"/>
            <feBlend mode="normal" in="SourceGraphic" in2="effect1_dropShadow_0_247" result="shape"/>
        </filter>
        <linearGradient id="paint0_linear_0_247" x1="15" y1="0.5" x2="15" y2="33.5" gradientUnits="userSpaceOnUse">
            <stop stop-color="#FF7979"/>
            <stop offset="1" stop-color="#E85555"/>
        </linearGradient>
        <linearGradient id="paint1_linear_0_247" x1="15" y1="0.5" x2="15" y2="33.5" gradientUnits="userSpaceOnUse">
            <stop stop-color="#6ABDF8"/>
            <stop offset="1" stop-color="#008BD6"/>
        </linearGradient>
        <linearGradient id="paint2_linear_0_247" x1="15" y1="0.5" x2="15" y2="33.5" gradientUnits="userSpaceOnUse">
            <stop stop-color="#6ABDF8"/>
            <stop offset="1" stop-color="#008BD6"/>
        </linearGradient>
        <linearGradient id="paint3_linear_0_247" x1="0.190558" y1="-0.0495036" x2="7.29487" y2="19.36"
                        gradientUnits="userSpaceOnUse">
            <stop stop-color="white" stop-opacity="0"/>
            <stop offset="1" stop-color="white"/>
        </linearGradient>
        <linearGradient id="paint4_linear_0_247" x1="-0.47412" y1="-0.344072" x2="3.97192" y2="11.8337"
                        gradientUnits="userSpaceOnUse">
            <stop stop-color="white" stop-opacity="0"/>
            <stop offset="1" stop-color="white"/>
        </linearGradient>
        <linearGradient id="paint5_linear_0_247" x1="24.375" y1="0.5" x2="24.375" y2="11.4286"
                        gradientUnits="userSpaceOnUse">
            <stop stop-color="#009FE3"/>
            <stop offset="1" stop-color="#0087C1"/>
        </linearGradient>
    </defs>
</svg>