<svg width="125" height="33" viewBox="0 0 125 33" fill="none" xmlns="http://www.w3.org/2000/svg">
<path d="M48.9996 12.576L48.952 12.2904C48.952 12.2587 48.952 12.2269 48.952 12.1952C48.952 11.7192 49.19 11.4812 49.666 11.4812C50.0944 11.4812 50.3324 11.6954 50.38 12.1238C50.6021 14.0913 51.0464 16.3285 51.7128 18.8354C52.3792 21.3265 52.8869 22.572 53.236 22.572C53.3947 22.572 53.5533 22.0167 53.712 20.906C53.8865 19.7953 54.0531 18.5498 54.2118 17.1694C54.3863 15.7731 54.5291 14.8767 54.6402 14.48C54.9258 13.528 55.4494 13.052 56.211 13.052C56.6711 13.052 57.0123 13.1789 57.2344 13.4328C57.4248 13.6708 57.5597 13.9009 57.639 14.123C57.7342 14.3293 57.8135 14.5038 57.877 14.6466C57.9563 14.7894 58.1705 15.5589 58.5196 16.9552C59.4399 20.6997 60.0587 22.572 60.376 22.572C60.5029 22.572 60.6775 21.9294 60.8996 20.6442C61.1217 19.3431 61.3994 17.6771 61.7326 15.6462C62.0817 13.6153 62.3514 12.2349 62.5418 11.505C62.7481 10.7593 62.8988 10.3309 62.994 10.2198C63.1051 10.1087 63.2637 10.0532 63.47 10.0532C63.946 10.0532 64.184 10.2912 64.184 10.7672C64.184 10.91 64.1681 11.0449 64.1364 11.1718C63.7397 12.5681 63.3034 14.7656 62.8274 17.7644C62.3673 20.7632 62.0579 22.4292 61.8992 22.7624C61.7405 23.0956 61.6215 23.3257 61.5422 23.4526C61.4787 23.5637 61.3439 23.6827 61.1376 23.8096C60.9313 23.9365 60.6775 24 60.376 24C59.5827 24 58.9956 23.524 58.6148 22.572C58.3451 21.9373 58.0357 20.9298 57.6866 19.5494C57.3534 18.1531 57.0519 16.9631 56.7822 15.9794C56.5283 14.9798 56.3379 14.48 56.211 14.48C56.0841 14.48 55.9413 15.0433 55.7826 16.1698C55.6398 17.2805 55.4811 18.526 55.3066 19.9064C55.1479 21.2709 55.0051 22.1198 54.8782 22.453C54.7513 22.7862 54.6481 23.0321 54.5688 23.1908C54.4895 23.3336 54.3229 23.5081 54.069 23.7144C53.831 23.9048 53.5613 24 53.2598 24C52.9742 24 52.7283 23.9603 52.522 23.881C52.3316 23.8017 52.1571 23.6668 51.9984 23.4764C51.8397 23.2701 51.6097 22.8814 51.3082 22.3102C51.0226 21.739 50.6101 20.3983 50.0706 18.288C49.547 16.1777 49.19 14.2737 48.9996 12.576ZM66.7003 22.6196C66.6844 22.6196 66.5654 22.6831 66.3433 22.81C65.7721 23.1273 65.3516 23.286 65.0819 23.286C64.6059 23.286 64.3679 23.048 64.3679 22.572C64.3679 22.2705 64.6059 22.0246 65.0819 21.8342C65.1612 21.8025 65.3516 21.7073 65.6531 21.5486C65.9546 21.3899 66.1291 21.2947 66.1767 21.263C66.1132 21.1202 66.0815 20.906 66.0815 20.6204C66.0815 19.1924 66.5813 17.9707 67.5809 16.9552C68.5805 15.9397 69.4928 15.432 70.3179 15.432C71.143 15.432 71.7935 15.6303 72.2695 16.027C72.7455 16.4078 72.9835 16.8759 72.9835 17.4312C72.9835 17.9707 72.8566 18.4387 72.6027 18.8354C72.3488 19.2321 71.9522 19.6208 71.4127 20.0016C70.667 20.5411 69.5801 21.1678 68.1521 21.8818C68.7868 22.3419 69.6674 22.572 70.7939 22.572C71.9204 22.572 73.0311 22.3895 74.1259 22.0246C74.4591 21.9135 74.6495 21.858 74.6971 21.858C75.1731 21.858 75.4111 22.096 75.4111 22.572C75.4111 22.9211 75.1731 23.1749 74.6971 23.3336C73.3643 23.7779 72.0791 24 70.8415 24C69.0803 24 67.6999 23.5399 66.7003 22.6196ZM67.5095 20.6204C70.2068 19.2717 71.5555 18.2563 71.5555 17.574C71.5555 17.098 71.1588 16.86 70.3655 16.86C69.8895 16.86 69.2945 17.2408 68.5805 18.0024C67.8665 18.7481 67.5095 19.6208 67.5095 20.6204ZM80.7516 17.5026C82.7191 15.5351 83.7028 13.5756 83.7028 11.624C83.7028 9.9104 83.3061 9.0536 82.5128 9.0536C82.1003 9.0536 81.6877 9.63273 81.2752 10.791C80.8309 12.0286 80.6088 13.5756 80.6088 15.432C80.6088 16.2095 80.6564 16.8997 80.7516 17.5026ZM89.3196 18.9544C90.2081 18.288 90.9221 17.5185 91.4616 16.6458C92.0011 15.7731 92.2708 14.9401 92.2708 14.1468C92.2708 13.3535 92.2073 12.7188 92.0804 12.2428C91.9535 11.7668 91.7948 11.4336 91.6044 11.2432C91.2553 10.8941 90.9221 10.7196 90.6048 10.7196C90.3509 10.7196 90.1129 10.8703 89.8908 11.1718C89.6845 11.4574 89.5179 11.7668 89.391 12.1C89.0895 12.8933 88.9388 13.9881 88.9388 15.3844C88.9388 16.7807 89.0657 17.9707 89.3196 18.9544ZM80.1328 19.9778C78.8317 21.0409 77.491 21.9453 76.1106 22.691C75.3807 23.0877 74.8809 23.286 74.6112 23.286C74.1352 23.286 73.8972 23.048 73.8972 22.572C73.8972 22.2705 74.1114 22.0405 74.5398 21.8818C74.9682 21.7231 75.6584 21.3503 76.6104 20.7632C77.5624 20.1761 78.5461 19.4542 79.5616 18.5974C79.3077 17.6771 79.1808 16.622 79.1808 15.432C79.1808 13.1631 79.4981 11.2987 80.1328 9.839C80.7675 8.3634 81.537 7.6256 82.4414 7.6256C84.2343 7.6256 85.1308 8.91873 85.1308 11.505C85.1308 14.0913 83.8297 16.5982 81.2276 19.0258C81.7829 20.1206 82.846 20.668 84.4168 20.668C85.6385 20.668 86.8603 20.3507 88.082 19.716C87.7012 18.5736 87.5108 17.0663 87.5108 15.194C87.5108 13.3217 87.8043 11.8699 88.3914 10.8386C88.9785 9.80727 89.6925 9.2916 90.5334 9.2916C91.3743 9.2916 92.1121 9.66447 92.7468 10.4102C93.3815 11.1401 93.6988 12.338 93.6988 14.004C93.6988 15.1305 93.3497 16.265 92.6516 17.4074C91.9535 18.5339 91.0253 19.4939 89.867 20.2872C90.3747 21.1916 90.9618 21.8025 91.6282 22.1198C92.2946 22.4213 93.2228 22.572 94.4128 22.572C94.8095 22.572 95.4203 22.453 96.2454 22.215C97.0705 21.977 97.5068 21.858 97.5544 21.858C98.0304 21.858 98.2684 22.096 98.2684 22.572C98.2684 22.9211 98.0304 23.1749 97.5544 23.3336C96.2216 23.7779 95.1744 24 94.4128 24C92.9848 24 91.8186 23.7779 90.9142 23.3336C90.0098 22.8893 89.2561 22.1198 88.6532 21.025C87.2569 21.739 85.8448 22.096 84.4168 22.096C82.4017 22.096 80.9737 21.3899 80.1328 19.9778ZM99.9097 14.8132C99.8938 14.5911 99.8859 14.242 99.8859 13.766C99.8859 12.0524 100.045 10.2436 100.362 8.3396C100.441 7.8636 100.679 7.6256 101.076 7.6256C101.552 7.6256 101.79 7.85567 101.79 8.3158C101.79 8.39513 101.774 8.53 101.742 8.7204C101.457 10.434 101.314 12.1159 101.314 13.766V14.5514C103.392 14.1865 104.9 14.004 105.836 14.004C106.312 14.004 106.55 14.242 106.55 14.718C106.55 15.194 106.312 15.432 105.836 15.432C104.916 15.432 103.432 15.6145 101.385 15.9794C101.718 20.3745 103.123 22.572 105.598 22.572C106.153 22.572 106.843 22.453 107.668 22.215C108.494 21.977 108.93 21.858 108.977 21.858C109.453 21.858 109.691 22.096 109.691 22.572C109.691 22.9211 109.453 23.1749 108.977 23.3336C107.645 23.7779 106.518 24 105.598 24C104.122 24 102.877 23.3971 101.861 22.1912C100.846 20.9853 100.219 19.002 99.9811 16.2412L99.4337 16.3602C99.2909 16.3761 99.2036 16.384 99.1719 16.384C98.6959 16.384 98.4579 16.146 98.4579 15.67C98.4579 15.2892 98.6959 15.0512 99.1719 14.956C99.4733 14.8925 99.7193 14.8449 99.9097 14.8132Z" fill="#2B2B2D"/>
<g clip-path="url(#clip0_39_2362)">
<path d="M19.6923 25.5328C19.6923 25.5328 19.6923 24.879 20.039 24.0188C20.2123 23.5714 20.4203 23.0553 20.7323 22.5735C21.0444 22.0574 21.4604 21.5756 21.9111 21.0938C22.3965 20.6465 22.8819 20.2336 23.4366 19.9927C23.6793 19.8206 23.9566 19.7174 24.234 19.6486C24.4767 19.5454 24.754 19.4765 24.9967 19.4421C25.4821 19.3389 25.8634 19.3045 26.1408 19.3389C26.4182 19.3389 26.5915 19.3389 26.5915 19.3389C26.5915 19.3389 26.4528 19.4077 26.2101 19.5109C25.9674 19.6142 25.6208 19.7518 25.2047 19.9583C24.9967 20.0615 24.7887 20.1648 24.5807 20.3024C24.3727 20.44 24.13 20.5777 23.9219 20.7153C23.6793 20.853 23.4712 21.025 23.2632 21.2315C23.0205 21.4035 22.8125 21.61 22.6392 21.8165C22.2231 22.195 21.8418 22.6423 21.4951 23.0897C21.1484 23.5026 20.8364 23.9499 20.5937 24.2941C20.039 24.9823 19.6923 25.5328 19.6923 25.5328Z" fill="#28B2AB"/>
<path d="M8.56335 9.49739C8.56335 9.49739 8.80604 9.56621 9.22208 9.73827C9.63811 9.94473 10.2275 10.22 10.8515 10.7018C11.1636 10.9426 11.5103 11.1835 11.8223 11.4932C12.1343 11.8029 12.481 12.147 12.793 12.5255C13.4518 13.2482 14.0065 14.1773 14.4918 15.0719C14.6999 15.5537 14.9426 16.0355 15.1159 16.5172C15.2892 16.999 15.4279 17.4807 15.5666 17.9625C15.6706 18.4442 15.7746 18.8916 15.844 19.3389C15.9133 19.7862 15.948 20.1992 15.9826 20.5777C16.0866 21.3347 15.9826 21.9885 16.0173 22.4359C16.0173 22.8832 15.9826 23.1241 15.9826 23.1241C15.9826 23.1241 15.9133 22.8832 15.8093 22.4359C15.7053 21.9885 15.6013 21.3691 15.3933 20.6465C15.2892 20.3024 15.1852 19.8895 15.0812 19.4765C14.9426 19.0636 14.8039 18.6507 14.6652 18.2033C14.5265 17.756 14.3185 17.3431 14.1452 16.8613C13.9718 16.414 13.7291 15.9666 13.5211 15.5193C13.2784 15.0719 13.0704 14.659 12.8277 14.2461C12.5504 13.8332 12.3423 13.4202 12.065 13.0761C11.5449 12.3191 10.9556 11.6653 10.4702 11.1147C9.95014 10.5641 9.49943 10.1512 9.15274 9.87591C8.77137 9.66945 8.56335 9.49739 8.56335 9.49739Z" fill="#28B2AB"/>
<path opacity="0.7" d="M16.0867 6.12513C16.0867 6.12513 18.7215 2.92492 16.0867 0C16.0867 0 12.8277 2.30553 16.0867 6.12513Z" fill="#28B2AB"/>
<path opacity="0.7" d="M23.61 9.42857C23.61 9.42857 27.3543 11.1835 29.6078 7.94891C29.6078 7.94891 26.5916 5.33368 23.61 9.42857Z" fill="#28B2AB"/>
<path opacity="0.7" d="M21.0098 18.5819C21.0098 18.5819 24.6847 18.7883 25.4475 15.3816C25.4128 15.3816 22.0499 14.2461 21.0098 18.5819Z" fill="#28B2AB"/>
<path d="M27.0076 15.7258C27.0076 15.7258 30.3012 16.9645 31.9653 14.1084C32 14.1084 29.2611 12.0782 27.0076 15.7258Z" fill="#28B2AB"/>
<path d="M21.7725 13.2826C21.7725 13.2826 24.6154 14.2461 25.9675 11.7341C25.9675 11.7341 23.5753 10.1168 21.7725 13.2826Z" fill="#28B2AB"/>
<path d="M26.5916 19.3045C26.5916 19.3045 29.3304 21.5068 31.792 19.3045C31.8267 19.3045 29.8852 16.5516 26.5916 19.3045Z" fill="#28B2AB"/>
<path opacity="0.7" d="M25.5515 23.0553C25.5515 23.0553 27.5277 25.2231 29.8852 23.7435C29.8852 23.7091 28.6371 21.1627 25.5515 23.0553Z" fill="#28B2AB"/>
<path d="M18.8602 8.67153C18.8602 8.67153 22.4312 7.77685 22.1538 4.33577C22.1885 4.30136 18.6522 4.19812 18.8602 8.67153Z" fill="#28B2AB"/>
<path opacity="0.7" d="M8.39004 9.46298C8.39004 9.46298 4.61105 11.2179 2.3922 7.98331C2.35753 7.98331 5.37378 5.36809 8.39004 9.46298Z" fill="#28B2AB"/>
<path d="M10.9903 18.5819C10.9903 18.5819 7.31528 18.7883 6.55255 15.3816C6.55255 15.3816 9.9155 14.2461 10.9903 18.5819Z" fill="#28B2AB"/>
<path opacity="0.7" d="M4.95775 15.7258C4.95775 15.7258 1.66414 16.9645 0 14.1084C0 14.1084 2.70423 12.0782 4.95775 15.7258Z" fill="#28B2AB"/>
<path d="M10.2275 13.2826C10.2275 13.2826 7.38458 14.2461 6.03247 11.7341C6.03247 11.7341 8.39 10.1168 10.2275 13.2826Z" fill="#28B2AB"/>
<path d="M5.37377 19.3045C5.37377 19.3045 2.63488 21.5068 0.17334 19.3045C0.17334 19.3045 2.11483 16.5516 5.37377 19.3045Z" fill="#28B2AB"/>
<path opacity="0.7" d="M6.41389 23.0553C6.41389 23.0553 4.43773 25.2231 2.0802 23.7435C2.0802 23.7091 3.36297 21.1627 6.41389 23.0553Z" fill="#28B2AB"/>
<path d="M13.1051 8.67153C13.1051 8.67153 9.53414 7.77685 9.8115 4.33577C9.77683 4.30136 13.3478 4.19812 13.1051 8.67153Z" fill="#28B2AB"/>
<path d="M17.8548 11.7341C17.8548 12.732 17.0574 13.5235 16.052 13.5235C15.0466 13.5235 14.2492 12.732 14.2492 11.7341C14.2492 10.7362 15.0466 9.94473 16.052 9.94473C17.0574 9.94473 17.8548 10.7706 17.8548 11.7341Z" fill="#28B2AB"/>
<path d="M7.80066 33L16.6414 32.6559L9.18744 32.2085" fill="#28B2AB"/>
<path d="M18.9642 19.1668C18.9642 19.1668 18.8949 19.4077 18.7909 19.8551C18.6522 20.3024 18.5482 20.9218 18.4442 21.6788C18.4095 22.0574 18.3402 22.4703 18.3402 22.9176C18.3055 23.365 18.3402 23.8123 18.3402 24.2596C18.3749 24.707 18.4095 25.2231 18.5135 25.6705C18.6176 26.1522 18.7216 26.634 18.8949 27.0813C19.0336 27.5631 19.2763 27.976 19.4843 28.4234C19.6923 28.8707 20.0043 29.2148 20.2817 29.6277C20.559 30.0063 20.9057 30.316 21.1831 30.6257C21.4605 30.9698 21.8072 31.1762 22.0845 31.4515C22.3965 31.6924 22.6392 31.9333 22.9166 32.1053C23.1939 32.2774 23.402 32.4494 23.61 32.5527C23.9913 32.8279 24.1994 32.9656 24.1994 32.9656C24.1994 32.9656 23.9567 32.8968 23.506 32.7247C23.2979 32.6559 23.0206 32.5527 22.7086 32.415C22.3965 32.3118 22.0845 32.1397 21.7378 31.9333C21.3911 31.7268 20.9751 31.5203 20.6284 31.2106C20.2817 30.9009 19.8657 30.5912 19.519 30.2127C19.2069 29.7998 18.7909 29.4213 18.5482 28.9395C18.2709 28.4578 17.9935 27.976 17.8548 27.4599C17.6468 26.9437 17.5428 26.3931 17.4388 25.8425C17.3348 25.292 17.3694 24.7758 17.3348 24.2596C17.3694 23.2273 17.5775 22.2982 17.8202 21.5412C18.3055 20.0271 18.9642 19.1668 18.9642 19.1668Z" fill="#28B2AB"/>
<path d="M13.0011 19.1668C13.0011 19.1668 13.1744 19.3733 13.3825 19.7862C13.5905 20.1992 13.9025 20.7841 14.1452 21.5412C14.2839 21.9197 14.3879 22.3326 14.4572 22.8144C14.5612 23.2617 14.5612 23.7779 14.5959 24.2596C14.5612 24.7758 14.5959 25.292 14.4572 25.8425C14.3879 26.1178 14.3532 26.3931 14.2839 26.634L14.0065 27.4254C13.8332 27.976 13.5211 28.4234 13.2785 28.9051C13.0011 29.3524 12.6197 29.7654 12.3077 30.1783C11.9263 30.5224 11.5796 30.8665 11.2329 31.1762C10.8863 31.4859 10.4702 31.6924 10.1582 31.8989C9.8115 32.1053 9.49947 32.3118 9.18744 32.415C8.87542 32.5527 8.63273 32.6559 8.42471 32.7591C8.00868 32.9312 7.73132 33.0344 7.73132 33.0344C7.73132 33.0344 7.93934 32.8624 8.32071 32.5871C8.49405 32.4494 8.73674 32.2774 8.97943 32.1053C9.25678 31.9333 9.49947 31.6924 9.77683 31.4171C10.0542 31.1418 10.4009 30.9009 10.6782 30.5912C10.9556 30.2815 11.2676 29.9374 11.5796 29.5933C11.8223 29.2148 12.1344 28.8019 12.377 28.4234C12.5851 27.976 12.8624 27.5631 13.0011 27.1157L13.2438 26.4275C13.3131 26.1867 13.3478 25.9458 13.4171 25.7049C13.5558 25.2231 13.5558 24.7414 13.6251 24.2941C13.6251 23.8467 13.6598 23.365 13.6251 22.952C13.5905 22.5047 13.5558 22.1262 13.5211 21.7477C13.4171 20.9906 13.2785 20.3712 13.1744 19.9239C13.1051 19.4421 13.0011 19.1668 13.0011 19.1668Z" fill="#28B2AB"/>
<path d="M23.402 9.49739C23.402 9.49739 23.1939 9.63503 22.8472 9.91032C22.5005 10.1856 22.0498 10.5985 21.5298 11.1491C21.0098 11.6997 20.455 12.3535 19.935 13.1105C19.6576 13.4546 19.415 13.902 19.1723 14.2805C18.9296 14.6934 18.6869 15.1408 18.4789 15.5537C18.2709 16.001 18.0282 16.4484 17.8548 16.8957C17.6815 17.3431 17.4735 17.7904 17.3348 18.2377C17.1961 18.6851 17.0574 19.098 16.9187 19.5109C16.8147 19.9239 16.7107 20.3024 16.6067 20.6809C16.3987 21.4035 16.2947 22.0229 16.1907 22.4703C16.0867 22.9176 16.0173 23.1585 16.0173 23.1585C16.0173 23.1585 15.9827 22.9176 15.9827 22.4703C15.9827 22.0229 15.9133 21.3691 16.0173 20.6121C16.052 20.2336 16.0867 19.8206 16.156 19.3733C16.2253 18.926 16.3294 18.4786 16.4334 17.9969C16.572 17.5151 16.7107 17.0334 16.8841 16.5516C17.0574 16.0699 17.3001 15.5881 17.5081 15.1064C17.9935 14.1773 18.5482 13.2826 19.2069 12.56C19.519 12.1814 19.8657 11.8373 20.1777 11.5276C20.4897 11.2179 20.8364 10.9426 21.1484 10.7362C21.7725 10.2544 22.3619 9.97914 22.7779 9.77268C23.1593 9.56621 23.402 9.49739 23.402 9.49739Z" fill="#28B2AB"/>
<path d="M12.273 25.5328C12.273 25.5328 11.9263 24.9823 11.4063 24.2596C11.1289 23.8811 10.8516 23.4682 10.5049 23.0553C10.1582 22.6423 9.77681 22.195 9.36078 21.7821C9.15276 21.5756 8.94474 21.3691 8.70206 21.1971C8.49404 21.025 8.25135 20.853 8.04333 20.6809C7.83532 20.5089 7.59263 20.3712 7.38461 20.268C7.1766 20.1303 6.96858 20.0271 6.76056 19.9239C6.3792 19.7174 5.99783 19.5798 5.75514 19.4765C5.51246 19.3733 5.37378 19.3045 5.37378 19.3045C5.37378 19.3045 5.51246 19.3045 5.82448 19.3045C6.10184 19.3045 6.51787 19.3045 6.96858 19.4077C7.21127 19.4421 7.45395 19.5109 7.73131 19.6142C8.00866 19.7174 8.28602 19.8206 8.52871 19.9583C9.08342 20.2336 9.60346 20.6465 10.0542 21.0594C10.5049 21.5068 10.9209 22.0229 11.2329 22.5391C11.545 23.0553 11.7876 23.537 11.9263 23.9844C12.2384 24.879 12.273 25.5328 12.273 25.5328Z" fill="#28B2AB"/>
</g>
<defs>
<clipPath id="clip0_39_2362">
<rect width="32" height="33" fill="white"/>
</clipPath>
</defs>
</svg>
