<svg viewBox="0 0 30 34" fill="none" xmlns="http://www.w3.org/2000/svg">
    <mask id="mask0_0_185" style="mask-type:alpha" maskUnits="userSpaceOnUse" x="0" y="0" width="30" height="34">
        <path
                d="M27.5735 33.5H2.42647C1.08637 33.5 0 32.4447 0 31.1429V2.85714C0 1.55533 1.08637 0.5 2.42647 0.5H18.75L30 11.4286V31.1429C30 32.4447 28.9136 33.5 27.5735 33.5Z"
                fill="url(#paint0_linear_0_185)"/>
    </mask>
    <g mask="url(#mask0_0_185)">
        <path
                d="M27.5735 33.5H2.42647C1.08637 33.5 0 32.4447 0 31.1429V2.85714C0 1.55533 1.08637 0.5 2.42647 0.5H18.75L30 11.4286V31.1429C30 32.4447 28.9136 33.5 27.5735 33.5Z"
                fill="url(#paint1_linear_0_185)"/>
        <g opacity="0.1">
            <path fill-rule="evenodd" clip-rule="evenodd" d="M21.9485 15.3928H8.05147V14.1071H21.9485V15.3928Z"
                  fill="white"/>
            <path fill-rule="evenodd" clip-rule="evenodd" d="M21.9485 18.6071H8.05147V17.3214H21.9485V18.6071Z"
                  fill="white"/>
            <path fill-rule="evenodd" clip-rule="evenodd" d="M21.9485 21.8214H8.05147V20.5357H21.9485V21.8214Z"
                  fill="white"/>
            <path fill-rule="evenodd" clip-rule="evenodd" d="M21.9485 25.0357H8.05147V23.75H21.9485V25.0357Z"
                  fill="white"/>
            <path fill-rule="evenodd" clip-rule="evenodd" d="M21.9485 28.2499H8.05147V26.9642H21.9485V28.2499Z"
                  fill="white"/>
        </g>
        <path
                d="M6.8622 23.7924C6.75184 23.7924 6.65889 23.7558 6.58338 23.6824C6.50787 23.609 6.47011 23.5188 6.47011 23.4115V18.2314C6.47011 18.1242 6.50787 18.0339 6.58338 17.9605C6.65889 17.8815 6.75184 17.842 6.8622 17.842H8.84882C9.40066 17.842 9.85084 17.9323 10.1994 18.1129C10.5479 18.2935 10.7977 18.5248 10.9487 18.807C11.0997 19.0891 11.1753 19.3938 11.1753 19.7211C11.1753 20.0484 11.0997 20.3531 10.9487 20.6353C10.7977 20.9174 10.5479 21.1488 10.1994 21.3293C9.85084 21.5099 9.40066 21.6002 8.84882 21.6002H7.26301V23.4115C7.26301 23.5188 7.22235 23.609 7.14103 23.6824C7.06551 23.7558 6.97257 23.7924 6.8622 23.7924ZM8.7704 20.8723C9.3629 20.8723 9.77823 20.7622 10.0164 20.5422C10.2604 20.3221 10.3824 20.0484 10.3824 19.7211C10.3824 19.3938 10.2604 19.1201 10.0164 18.9001C9.77823 18.68 9.3629 18.57 8.7704 18.57H7.26301V20.8723H8.7704Z"
                fill="white"/>
        <path
                d="M13.3263 23.7501C13.216 23.7501 13.123 23.7134 13.0475 23.6401C12.972 23.5667 12.9342 23.4764 12.9342 23.3692V18.2314C12.9342 18.1242 12.972 18.0339 13.0475 17.9605C13.123 17.8815 13.216 17.842 13.3263 17.842H15.0777C15.7399 17.842 16.3005 17.9859 16.7593 18.2737C17.2241 18.5559 17.5726 18.9226 17.8049 19.3741C18.0373 19.8255 18.1535 20.2995 18.1535 20.7961C18.1535 21.2927 18.0373 21.7667 17.8049 22.2181C17.5726 22.6695 17.2241 23.0391 16.7593 23.3269C16.3005 23.609 15.7399 23.7501 15.0777 23.7501H13.3263ZM14.9818 23.0307C15.4582 23.0307 15.8764 22.9375 16.2366 22.7513C16.5967 22.5595 16.8755 22.2971 17.073 21.9642C17.2705 21.6256 17.3693 21.2362 17.3693 20.7961C17.3693 20.3559 17.2705 19.9694 17.073 19.6365C16.8755 19.2979 16.5967 19.0355 16.2366 18.8493C15.8764 18.6574 15.4582 18.5615 14.9818 18.5615H13.7271V23.0307H14.9818Z"
                fill="white"/>
        <path
                d="M20.4797 23.7924C20.3693 23.7924 20.2764 23.7558 20.2009 23.6824C20.1254 23.609 20.0876 23.5188 20.0876 23.4115V18.2314C20.0876 18.1242 20.1254 18.0339 20.2009 17.9605C20.2764 17.8815 20.3693 17.842 20.4797 17.842H23.8691C23.9737 17.842 24.0608 17.8787 24.1305 17.9521C24.2061 18.0198 24.2438 18.1044 24.2438 18.206C24.2438 18.3076 24.2061 18.3922 24.1305 18.4599C24.0608 18.5276 23.9737 18.5615 23.8691 18.5615H20.8805V20.4321H23.5642C23.6687 20.4321 23.7559 20.4688 23.8256 20.5422C23.9011 20.6099 23.9389 20.6945 23.9389 20.7961C23.9389 20.8977 23.9011 20.9823 23.8256 21.05C23.7559 21.1177 23.6687 21.1516 23.5642 21.1516H20.8805V23.4115C20.8805 23.5188 20.8398 23.609 20.7585 23.6824C20.683 23.7558 20.5901 23.7924 20.4797 23.7924Z"
                fill="white"/>
        <path fill-rule="evenodd" clip-rule="evenodd"
              d="M9.86533 20.386L9.8663 20.3851C10.0647 20.2061 10.1618 19.9896 10.1618 19.7211C10.1618 19.4526 10.0647 19.2361 9.8663 19.0571L9.86533 19.0562L9.86437 19.0553C9.68958 18.8938 9.34747 18.7842 8.77041 18.7842H7.48361V20.658H8.77041C9.34747 20.658 9.68958 20.5484 9.86437 20.3869L9.86533 20.386ZM7.26302 20.8722V18.57H8.77041C9.36291 18.57 9.77824 18.68 10.0164 18.9001C10.2604 19.1201 10.3824 19.3938 10.3824 19.7211C10.3824 20.0484 10.2604 20.3221 10.0164 20.5421C9.77824 20.7622 9.36291 20.8722 8.77041 20.8722H7.26302ZM6.86221 24.0067C6.69553 24.0067 6.54581 23.9489 6.42741 23.8339C6.309 23.7189 6.24953 23.5734 6.24953 23.4115V18.2314C6.24953 18.0708 6.30804 17.9264 6.42452 17.8118C6.54112 17.6913 6.69148 17.6277 6.86221 17.6277H8.84883C9.42329 17.6277 9.91256 17.7214 10.3032 17.9238C10.6828 18.1205 10.9689 18.3802 11.1444 18.7081C11.3123 19.0217 11.3959 19.3604 11.3959 19.7211C11.3959 20.0818 11.3123 20.4205 11.1444 20.7341C10.9689 21.062 10.6828 21.3217 10.3032 21.5184C9.91256 21.7208 9.42329 21.8145 8.84883 21.8145H7.48361V23.4115C7.48361 23.5774 7.41817 23.7234 7.2941 23.8367C7.17616 23.9499 7.02753 24.0067 6.86221 24.0067ZM7.14103 23.6824C7.22236 23.609 7.26302 23.5187 7.26302 23.4115V21.6002H8.84883C9.40067 21.6002 9.85085 21.5099 10.1994 21.3293C10.5479 21.1487 10.7977 20.9174 10.9487 20.6352C11.0997 20.3531 11.1753 20.0484 11.1753 19.7211C11.1753 19.3938 11.0997 19.0891 10.9487 18.807C10.7977 18.5248 10.5479 18.2935 10.1994 18.1129C9.85085 17.9323 9.40067 17.842 8.84883 17.842H6.86221C6.75184 17.842 6.6589 17.8815 6.58339 17.9605C6.50787 18.0339 6.47012 18.1242 6.47012 18.2314V23.4115C6.47012 23.5187 6.50787 23.609 6.58339 23.6824C6.6589 23.7557 6.75184 23.7924 6.86221 23.7924C6.97258 23.7924 7.06552 23.7557 7.14103 23.6824ZM16.8779 23.5076L16.8773 23.508C16.3761 23.8161 15.7725 23.9644 15.0777 23.9644H13.3263C13.1597 23.9644 13.0099 23.9066 12.8915 23.7916C12.7731 23.6766 12.7137 23.5311 12.7137 23.3692V18.2314C12.7137 18.0708 12.7722 17.9264 12.8886 17.8118C13.0052 17.6913 13.1556 17.6277 13.3263 17.6277H15.0777C15.7726 17.6277 16.3764 17.7789 16.8776 18.0928C17.3741 18.3946 17.751 18.79 18.0022 19.2782C18.2497 19.7589 18.3741 20.2657 18.3741 20.7961C18.3741 21.3265 18.2497 21.8332 18.0022 22.3139C17.7509 22.8021 17.3742 23.2003 16.8779 23.5076ZM16.7594 18.2737C16.3005 17.9859 15.7399 17.842 15.0777 17.842H13.3263C13.216 17.842 13.123 17.8815 13.0475 17.9605C12.972 18.0339 12.9342 18.1242 12.9342 18.2314V23.3692C12.9342 23.4764 12.972 23.5667 13.0475 23.6401C13.123 23.7134 13.216 23.7501 13.3263 23.7501H15.0777C15.7399 23.7501 16.3005 23.609 16.7594 23.3269C17.2241 23.0391 17.5726 22.6695 17.8049 22.2181C18.0373 21.7666 18.1535 21.2926 18.1535 20.7961C18.1535 20.2995 18.0373 19.8255 17.8049 19.3741C17.5726 18.9226 17.2241 18.5559 16.7594 18.2737ZM16.8815 19.7428L16.8811 19.7421C16.7047 19.4396 16.4568 19.2059 16.1329 19.0384L16.1317 19.0378L16.1305 19.0372C15.8077 18.8652 15.4271 18.7758 14.9819 18.7758H13.9477V22.8164H14.9819C15.4275 22.8164 15.8087 22.7295 16.1317 22.5628C16.457 22.3892 16.7053 22.1547 16.8815 21.8578C17.0576 21.5556 17.1487 21.2038 17.1487 20.7961C17.1487 20.3879 17.0574 20.0394 16.8819 19.7435L16.8815 19.7428ZM16.2366 22.7513C15.8764 22.9375 15.4582 23.0306 14.9819 23.0306H13.7271V18.5615H14.9819C15.4582 18.5615 15.8764 18.6574 16.2366 18.8493C16.5967 19.0355 16.8755 19.2979 17.073 19.6365C17.2705 19.9694 17.3693 20.3559 17.3693 20.7961C17.3693 21.2362 17.2705 21.6256 17.073 21.9641C16.8755 22.2971 16.5967 22.5595 16.2366 22.7513ZM20.4797 24.0067C20.313 24.0067 20.1633 23.9489 20.0449 23.8339C19.9265 23.7189 19.867 23.5734 19.867 23.4115V18.2314C19.867 18.0708 19.9255 17.9264 20.042 17.8118C20.1586 17.6913 20.309 17.6277 20.4797 17.6277H23.8692C24.0311 17.6277 24.1751 17.6864 24.2866 17.8005C24.404 17.9088 24.4644 18.0487 24.4644 18.206C24.4644 18.3648 24.4029 18.5058 24.2834 18.6145C24.1701 18.723 24.0268 18.7758 23.8692 18.7758H21.1011V20.2178H23.5642C23.7262 20.2178 23.8702 20.2765 23.9816 20.3905C24.0991 20.4988 24.1594 20.6387 24.1594 20.7961C24.1594 20.9548 24.0979 21.0959 23.9784 21.2045C23.8651 21.313 23.7218 21.3659 23.5642 21.3659H21.1011V23.4115C21.1011 23.5774 21.0357 23.7234 20.9116 23.8367C20.7937 23.9499 20.645 24.0067 20.4797 24.0067ZM20.7585 23.6824C20.8399 23.609 20.8805 23.5187 20.8805 23.4115V21.1516H23.5642C23.6687 21.1516 23.7559 21.1177 23.8256 21.05C23.9011 20.9823 23.9389 20.8976 23.9389 20.7961C23.9389 20.6945 23.9011 20.6099 23.8256 20.5421C23.7559 20.4688 23.6687 20.4321 23.5642 20.4321H20.8805V18.5615H23.8692C23.9737 18.5615 24.0608 18.5276 24.1305 18.4599C24.2061 18.3922 24.2438 18.3076 24.2438 18.206C24.2438 18.1044 24.2061 18.0198 24.1305 17.9521C24.0608 17.8787 23.9737 17.842 23.8692 17.842H20.4797C20.3693 17.842 20.2764 17.8815 20.2009 17.9605C20.1254 18.0339 20.0876 18.1242 20.0876 18.2314V23.4115C20.0876 23.5187 20.1254 23.609 20.2009 23.6824C20.2764 23.7557 20.3693 23.7924 20.4797 23.7924C20.5901 23.7924 20.683 23.7557 20.7585 23.6824Z"
              fill="white"/>
        <mask id="mask1_0_185" style="mask-type:alpha" maskUnits="userSpaceOnUse" x="0" y="0" width="30" height="34">
            <path
                    d="M27.5735 33.5H2.42647C1.08637 33.5 0 32.4447 0 31.1429V2.85714C0 1.55533 1.08637 0.5 2.42647 0.5H18.75L30 11.4286V31.1429C30 32.4447 28.9136 33.5 27.5735 33.5Z"
                    fill="url(#paint2_linear_0_185)"/>
        </mask>
        <g mask="url(#mask1_0_185)">
            <path opacity="0.08"
                  d="M21.6176 -0.196445C21.6176 12.4962 10.5811 22.7857 -3.03309 22.7857C-16.6473 22.7857 -27.6838 12.4962 -27.6838 -0.196445C-27.6838 -12.8891 -16.6473 -23.1786 -3.03309 -23.1786C10.5811 -23.1786 21.6176 -12.8891 21.6176 -0.196445Z"
                  fill="url(#paint3_linear_0_185)"/>
            <path opacity="0.08"
                  d="M12.4632 -0.196402C12.4632 7.76242 5.5253 14.2143 -3.03309 14.2143C-11.5915 14.2143 -18.5294 7.76242 -18.5294 -0.196402C-18.5294 -8.15522 -11.5915 -14.6071 -3.03309 -14.6071C5.5253 -14.6071 12.4632 -8.15522 12.4632 -0.196402Z"
                  fill="url(#paint4_linear_0_185)"/>
        </g>
        <g filter="url(#filter0_d_0_185)">
            <path d="M30 11.4286H21.1765C19.8364 11.4286 18.75 10.3732 18.75 9.07143V0.5L30 11.4286Z"
                  fill="url(#paint5_linear_0_185)"/>
        </g>
    </g>
    <defs>
        <filter id="filter0_d_0_185" x="-4.25" y="-23.5" width="61.25" height="60.9286" filterUnits="userSpaceOnUse"
                color-interpolation-filters="sRGB">
            <feFlood flood-opacity="0" result="BackgroundImageFix"/>
            <feColorMatrix in="SourceAlpha" type="matrix" values="0 0 0 0 0 0 0 0 0 0 0 0 0 0 0 0 0 0 127 0"
                           result="hardAlpha"/>
            <feOffset dx="2" dy="1"/>
            <feGaussianBlur stdDeviation="12.5"/>
            <feColorMatrix type="matrix" values="0 0 0 0 0 0 0 0 0 0 0 0 0 0 0 0 0 0 0.33 0"/>
            <feBlend mode="normal" in2="BackgroundImageFix" result="effect1_dropShadow_0_185"/>
            <feBlend mode="normal" in="SourceGraphic" in2="effect1_dropShadow_0_185" result="shape"/>
        </filter>
        <linearGradient id="paint0_linear_0_185" x1="15" y1="0.5" x2="15" y2="33.5" gradientUnits="userSpaceOnUse">
            <stop stop-color="#FF7979"/>
            <stop offset="1" stop-color="#E85555"/>
        </linearGradient>
        <linearGradient id="paint1_linear_0_185" x1="15" y1="0.5" x2="15" y2="33.5" gradientUnits="userSpaceOnUse">
            <stop stop-color="#FF7981"/>
            <stop offset="1" stop-color="#E85567"/>
        </linearGradient>
        <linearGradient id="paint2_linear_0_185" x1="15" y1="0.5" x2="15" y2="33.5" gradientUnits="userSpaceOnUse">
            <stop stop-color="#FF7981"/>
            <stop offset="1" stop-color="#E85567"/>
        </linearGradient>
        <linearGradient id="paint3_linear_0_185" x1="-1.24327" y1="0.593319" x2="5.86105" y2="20.0028"
                        gradientUnits="userSpaceOnUse">
            <stop stop-color="white" stop-opacity="0"/>
            <stop offset="1" stop-color="white"/>
        </linearGradient>
        <linearGradient id="paint4_linear_0_185" x1="-1.90794" y1="0.298812" x2="2.5381" y2="12.4766"
                        gradientUnits="userSpaceOnUse">
            <stop stop-color="white" stop-opacity="0"/>
            <stop offset="1" stop-color="white"/>
        </linearGradient>
        <linearGradient id="paint5_linear_0_185" x1="24.375" y1="0.5" x2="24.375" y2="11.4286"
                        gradientUnits="userSpaceOnUse">
            <stop stop-color="#D03954"/>
            <stop offset="1" stop-color="#C02A3C"/>
        </linearGradient>
    </defs>
</svg>