<svg width="30" height="34"
     viewBox="0 0 30 34" fill="none" xmlns="http://www.w3.org/2000/svg">
    <mask id="mask0_0_279" style="mask-type:alpha" maskUnits="userSpaceOnUse" x="0" y="0" width="30" height="34">
        <path
                d="M27.5735 33.5H2.42647C1.08637 33.5 0 32.4447 0 31.1429V2.85714C0 1.55533 1.08637 0.5 2.42647 0.5H18.75L30 11.4286V31.1429C30 32.4447 28.9136 33.5 27.5735 33.5Z"
                fill="url(#paint0_linear_0_279)"/>
    </mask>
    <g mask="url(#mask0_0_279)">
        <path
                d="M27.5735 33.5H2.42647C1.08637 33.5 0 32.4447 0 31.1429V2.85714C0 1.55533 1.08637 0.5 2.42647 0.5H18.75L30 11.4286V31.1429C30 32.4447 28.9136 33.5 27.5735 33.5Z"
                fill="url(#paint1_linear_0_279)"/>
        <g opacity="0.82" filter="url(#filter0_f_0_279)">
            <path d="M5.29411 16.4642H24.9265V25.4642H5.29411V16.4642Z" fill="#0F7D56" fill-opacity="0.27"
                  style="mix-blend-mode:darken"/>
        </g>
        <path
                d="M7.03609 23.7925C6.93734 23.7925 6.85021 23.7586 6.77469 23.6909C6.70499 23.6176 6.67014 23.5329 6.67014 23.437C6.67014 23.3467 6.69628 23.2677 6.74855 23.2L8.76131 20.7961L6.76598 18.4092C6.7137 18.3415 6.68756 18.2625 6.68756 18.1722C6.68756 18.065 6.72241 17.9775 6.79212 17.9098C6.86764 17.8364 6.96058 17.7998 7.07094 17.7998C7.13484 17.7998 7.19583 17.8139 7.25392 17.8421C7.31201 17.8703 7.35848 17.907 7.39333 17.9521L9.23183 20.2206L11.0703 17.9352C11.1342 17.8449 11.2301 17.7998 11.3579 17.7998C11.4624 17.7998 11.5525 17.8364 11.628 17.9098C11.7035 17.9775 11.7412 18.0622 11.7412 18.1637C11.7412 18.2427 11.718 18.3133 11.6715 18.3753L9.65878 20.7877L11.6715 23.1915C11.7238 23.2479 11.75 23.3213 11.75 23.4116C11.75 23.5188 11.7122 23.6091 11.6367 23.6824C11.567 23.7558 11.474 23.7925 11.3579 23.7925C11.2301 23.7925 11.1255 23.7389 11.0442 23.6317L9.17955 21.3548L7.34105 23.6401C7.25392 23.7417 7.15227 23.7925 7.03609 23.7925Z"
                fill="white"/>
        <path
                d="M14.1365 23.7502C13.9855 23.7502 13.8548 23.6994 13.7444 23.5978C13.6398 23.4906 13.5876 23.3636 13.5876 23.2169V18.1891C13.5876 18.0819 13.6253 17.9916 13.7008 17.9183C13.7763 17.8393 13.8693 17.7998 13.9797 17.7998C14.09 17.7998 14.183 17.8393 14.2585 17.9183C14.3398 17.9916 14.3805 18.0819 14.3805 18.1891V22.9799H17.2297C17.3401 22.9799 17.433 23.0194 17.5085 23.0984C17.5898 23.1718 17.6305 23.2621 17.6305 23.3693C17.6305 23.4765 17.5898 23.5668 17.5085 23.6401C17.433 23.7135 17.3401 23.7502 17.2297 23.7502H14.1365Z"
                fill="white"/>
        <path
                d="M21.1347 23.8348C20.397 23.8348 19.7057 23.6994 19.061 23.4285C18.9913 23.4003 18.9332 23.3552 18.8867 23.2931C18.8402 23.2254 18.817 23.1548 18.817 23.0815C18.817 22.9856 18.8489 22.9037 18.9128 22.836C18.9825 22.7627 19.0697 22.726 19.1742 22.726C19.2323 22.726 19.2875 22.7373 19.3398 22.7598C19.8742 22.9912 20.4464 23.1069 21.0563 23.1069C22.0728 23.1069 22.5811 22.7824 22.5811 22.1335C22.5811 21.9642 22.5143 21.8231 22.3807 21.7103C22.2529 21.5974 22.0932 21.5099 21.9015 21.4479C21.7098 21.3802 21.4368 21.3012 21.0824 21.2109C20.6119 21.0924 20.2314 20.9795 19.941 20.8723C19.6506 20.7594 19.4008 20.593 19.1917 20.3729C18.9825 20.1528 18.878 19.8594 18.878 19.4926C18.878 19.171 18.9651 18.8804 19.1394 18.6208C19.3137 18.3556 19.5692 18.1468 19.9062 17.9944C20.2489 17.8364 20.6584 17.7574 21.1347 17.7574C21.7737 17.7574 22.3517 17.8506 22.8687 18.0368C23.0313 18.0932 23.1126 18.2061 23.1126 18.3753C23.1126 18.4656 23.0807 18.5474 23.0168 18.6208C22.9529 18.6942 22.8687 18.7308 22.7641 18.7308C22.7292 18.7308 22.6828 18.7196 22.6247 18.697C22.1716 18.5446 21.704 18.4684 21.2219 18.4684C20.763 18.4684 20.3883 18.5531 20.0978 18.7224C19.8132 18.8917 19.6709 19.1287 19.6709 19.4334C19.6709 19.6365 19.7377 19.803 19.8713 19.9328C20.0107 20.0569 20.1821 20.1557 20.3854 20.229C20.5945 20.2967 20.8762 20.3701 21.2306 20.4491C21.6895 20.5563 22.0583 20.6635 22.3371 20.7707C22.6218 20.8779 22.8628 21.0444 23.0603 21.2701C23.2637 21.4958 23.3653 21.8006 23.3653 22.1843C23.3653 22.5003 23.2724 22.7852 23.0865 23.0392C22.9006 23.2874 22.6392 23.4821 22.3023 23.6232C21.9654 23.7643 21.5762 23.8348 21.1347 23.8348Z"
                fill="white"/>
        <path fill-rule="evenodd" clip-rule="evenodd"
              d="M6.6186 23.8425L6.61261 23.8362C6.50698 23.725 6.44955 23.5891 6.44955 23.4369C6.44955 23.3035 6.48921 23.1787 6.57209 23.0713L6.5747 23.068L8.47707 20.7959L6.59207 18.541L6.58952 18.5377C6.50663 18.4303 6.46698 18.3055 6.46698 18.1721C6.46698 18.0155 6.51996 17.8711 6.63615 17.7582C6.75455 17.6432 6.90427 17.5854 7.07095 17.5854C7.16967 17.5854 7.26438 17.6075 7.35258 17.6504C7.43679 17.6913 7.51059 17.7476 7.56806 17.8212L9.23119 19.8733L10.8929 17.8077C11.0039 17.655 11.1711 17.5854 11.3579 17.5854C11.5208 17.5854 11.6655 17.6446 11.7809 17.7552C11.9004 17.8639 11.9618 18.0049 11.9618 18.1637C11.9618 18.2865 11.9247 18.4015 11.8499 18.5013L11.8465 18.5058L9.94293 20.7873L11.8397 23.0526C11.9321 23.1548 11.9705 23.2808 11.9705 23.4115C11.9705 23.572 11.9121 23.7163 11.7957 23.8309C11.679 23.9519 11.5253 24.0067 11.3579 24.0067C11.1557 24.0067 10.9884 23.9174 10.8692 23.7621L9.1811 21.7008L7.51274 23.7746L7.51052 23.7772C7.38947 23.9183 7.22928 24.0067 7.0361 24.0067C6.87946 24.0067 6.73952 23.9509 6.62508 23.8483L6.6186 23.8425ZM9.17955 21.3547L11.0442 23.6316C11.1255 23.7388 11.2301 23.7924 11.3579 23.7924C11.474 23.7924 11.567 23.7557 11.6367 23.6824C11.7122 23.609 11.75 23.5187 11.75 23.4115C11.75 23.3212 11.7238 23.2479 11.6715 23.1914L9.65878 20.7876L11.6715 18.3753C11.718 18.3132 11.7412 18.2427 11.7412 18.1637C11.7412 18.0621 11.7035 17.9774 11.628 17.9097C11.5525 17.8364 11.4624 17.7997 11.3579 17.7997C11.2301 17.7997 11.1342 17.8448 11.0703 17.9351L9.23183 20.2205L7.39334 17.9521C7.35849 17.9069 7.31202 17.8702 7.25393 17.842C7.19584 17.8138 7.13485 17.7997 7.07095 17.7997C6.96058 17.7997 6.86764 17.8364 6.79213 17.9097C6.72242 17.9774 6.68757 18.0649 6.68757 18.1721C6.68757 18.2624 6.71371 18.3414 6.76599 18.4091L8.76132 20.796L6.74856 23.1999C6.69628 23.2676 6.67014 23.3466 6.67014 23.4369C6.67014 23.5328 6.705 23.6175 6.7747 23.6908C6.85022 23.7585 6.93735 23.7924 7.0361 23.7924C7.15228 23.7924 7.25393 23.7416 7.34106 23.64L9.17955 21.3547ZM13.5884 23.7493L13.5843 23.7451C13.4412 23.5984 13.367 23.4188 13.367 23.2168V18.1891C13.367 18.0285 13.4255 17.8841 13.542 17.7695C13.6586 17.649 13.8089 17.5854 13.9797 17.5854C14.149 17.5854 14.2983 17.648 14.4145 17.7666C14.5367 17.8795 14.6011 18.0245 14.6011 18.1891V22.7655H17.2297C17.3991 22.7655 17.5484 22.8281 17.6646 22.9467C17.7867 23.0596 17.8511 23.2047 17.8511 23.3692C17.8511 23.535 17.7857 23.6811 17.6616 23.7944C17.5437 23.9075 17.395 23.9644 17.2297 23.9644H14.1365C13.9286 23.9644 13.7437 23.8923 13.5927 23.7533L13.5884 23.7493ZM17.5085 23.64C17.5898 23.5667 17.6305 23.4764 17.6305 23.3692C17.6305 23.262 17.5898 23.1717 17.5085 23.0983C17.433 23.0193 17.3401 22.9798 17.2297 22.9798H14.3805V18.1891C14.3805 18.0818 14.3398 17.9916 14.2585 17.9182C14.183 17.8392 14.09 17.7997 13.9797 17.7997C13.8693 17.7997 13.7764 17.8392 13.7008 17.9182C13.6253 17.9916 13.5876 18.0818 13.5876 18.1891V23.2168C13.5876 23.3635 13.6398 23.4905 13.7444 23.5977C13.8548 23.6993 13.9855 23.7501 14.1365 23.7501H17.2297C17.3401 23.7501 17.433 23.7134 17.5085 23.64ZM18.7057 23.4155L18.7032 23.4119C18.6353 23.313 18.5964 23.2016 18.5964 23.0814C18.5964 22.9345 18.6473 22.8003 18.7502 22.6911L18.7508 22.6906C18.863 22.5724 19.0093 22.5116 19.1742 22.5116C19.2627 22.5116 19.3485 22.529 19.4294 22.5639L19.4296 22.564C19.9345 22.7826 20.476 22.8925 21.0563 22.8925C21.5474 22.8925 21.8774 22.8129 22.0788 22.6844C22.264 22.5662 22.3605 22.3941 22.3605 22.1334C22.3605 22.0273 22.3223 21.9448 22.236 21.8719L22.2341 21.8703L22.2323 21.8687C22.1308 21.7791 21.9992 21.7053 21.8317 21.6511L21.8289 21.6502L21.8261 21.6492C21.6439 21.5848 21.3786 21.5078 21.0267 21.4181C21.0266 21.4181 21.0266 21.4181 21.0265 21.4181L21.0824 21.2108C20.6119 21.0923 20.2315 20.9794 19.941 20.8722C19.6506 20.7594 19.4008 20.5929 19.1917 20.3728C18.9826 20.1528 18.878 19.8593 18.878 19.4926C18.878 19.1709 18.9651 18.8803 19.1394 18.6207C19.3137 18.3555 19.5692 18.1467 19.9062 17.9944C20.2489 17.8364 20.6584 17.7574 21.1347 17.7574C21.7737 17.7574 22.3517 17.8505 22.8687 18.0367C23.0313 18.0931 23.1126 18.206 23.1126 18.3753C23.1126 18.4656 23.0807 18.5474 23.0168 18.6207C22.9529 18.6941 22.8687 18.7308 22.7641 18.7308C22.7292 18.7308 22.6828 18.7195 22.6247 18.6969C22.1716 18.5446 21.704 18.4684 21.2219 18.4684C20.763 18.4684 20.3883 18.553 20.0979 18.7223C19.8132 18.8916 19.6709 19.1286 19.6709 19.4333C19.6709 19.6364 19.7377 19.8029 19.8713 19.9327C20.0107 20.0568 20.1821 20.1556 20.3854 20.2289C20.5945 20.2967 20.8762 20.37 21.2306 20.449C21.6895 20.5562 22.0583 20.6634 22.3372 20.7707C22.6218 20.8779 22.8629 21.0443 23.0604 21.27C23.2637 21.4958 23.3653 21.8005 23.3653 22.1842C23.3653 22.5002 23.2724 22.7852 23.0865 23.0391C22.9006 23.2874 22.6392 23.482 22.3023 23.6231C21.9654 23.7642 21.5762 23.8347 21.1347 23.8347C20.397 23.8347 19.7058 23.6993 19.061 23.4284C18.9913 23.4002 18.9332 23.3551 18.8867 23.293C18.8402 23.2253 18.817 23.1548 18.817 23.0814C18.817 22.9855 18.849 22.9037 18.9129 22.8359C18.9826 22.7626 19.0697 22.7259 19.1742 22.7259C19.2323 22.7259 19.2875 22.7372 19.3398 22.7598C19.8742 22.9911 20.4464 23.1068 21.0563 23.1068C22.0729 23.1068 22.5811 22.7823 22.5811 22.1334C22.5811 21.9641 22.5143 21.823 22.3807 21.7102C22.2529 21.5973 22.0932 21.5099 21.9015 21.4478C21.7098 21.3801 21.4368 21.3011 21.0824 21.2108M18.9746 23.6256C18.8665 23.5815 18.7771 23.511 18.7083 23.419L18.7057 23.4155M18.9746 23.6256C19.6481 23.9083 20.3689 24.049 21.1347 24.049C21.6002 24.049 22.0201 23.9746 22.3896 23.8199C22.7569 23.6661 23.0522 23.4492 23.2649 23.1651L23.2656 23.1642L23.2663 23.1633C23.4791 22.8725 23.5859 22.544 23.5859 22.1842C23.5859 21.7641 23.4741 21.4047 23.2274 21.1301C23.0065 20.878 22.7356 20.691 22.4175 20.5711C22.1254 20.4588 21.7457 20.349 21.2822 20.2407L21.281 20.2404L21.2799 20.2402C20.9308 20.1623 20.658 20.0911 20.4587 20.0268C20.2818 19.9626 20.1383 19.8788 20.0241 19.778C19.9385 19.6933 19.8915 19.5844 19.8915 19.4333C19.8915 19.209 19.9886 19.0388 20.2122 18.9055C20.4582 18.7624 20.7898 18.6827 21.2219 18.6827C21.6779 18.6827 22.1196 18.7544 22.5479 18.8979C22.6135 18.923 22.6891 18.9451 22.7641 18.9451C22.9293 18.9451 23.0767 18.8837 23.1852 18.7591C23.2804 18.6498 23.3332 18.5197 23.3332 18.3753C23.3332 18.2568 23.3044 18.1408 23.2324 18.0408C23.1605 17.941 23.0585 17.8753 22.9442 17.8354C22.3994 17.6393 21.7953 17.5431 21.1347 17.5431C20.6341 17.5431 20.191 17.626 19.8123 17.8005C19.4438 17.9672 19.1539 18.2008 18.9541 18.5045"
              fill="white"/>
        <mask id="mask1_0_279" style="mask-type:alpha" maskUnits="userSpaceOnUse" x="0" y="0" width="30" height="34">
            <path
                    d="M27.5735 33.5H2.42647C1.08637 33.5 0 32.4447 0 31.1429V2.85714C0 1.55533 1.08637 0.5 2.42647 0.5H18.75L30 11.4286V31.1429C30 32.4447 28.9136 33.5 27.5735 33.5Z"
                    fill="url(#paint2_linear_0_279)"/>
        </mask>
        <g mask="url(#mask1_0_279)">
            <path opacity="0.05"
                  d="M23.0515 -0.839268C23.0515 11.8534 12.015 22.1429 -1.59926 22.1429C-15.2135 22.1429 -26.25 11.8534 -26.25 -0.839268C-26.25 -13.532 -15.2135 -23.8214 -1.59926 -23.8214C12.015 -23.8214 23.0515 -13.532 23.0515 -0.839268Z"
                  fill="url(#paint3_linear_0_279)"/>
            <path opacity="0.07"
                  d="M13.8971 -0.839286C13.8971 7.11953 6.95912 13.5714 -1.59927 13.5714C-10.1576 13.5714 -17.0956 7.11953 -17.0956 -0.839286C-17.0956 -8.7981 -10.1576 -15.25 -1.59927 -15.25C6.95912 -15.25 13.8971 -8.7981 13.8971 -0.839286Z"
                  fill="url(#paint4_linear_0_279)"/>
        </g>
        <g filter="url(#filter1_d_0_279)">
            <path d="M30 11.4286H21.1765C19.8364 11.4286 18.75 10.3732 18.75 9.07143V0.5L30 11.4286Z"
                  fill="url(#paint5_linear_0_279)"/>
        </g>
    </g>
    <defs>
        <filter id="filter0_f_0_279" x="-33.7059" y="-22.5358" width="97.6324" height="87"
                filterUnits="userSpaceOnUse" color-interpolation-filters="sRGB">
            <feFlood flood-opacity="0" result="BackgroundImageFix"/>
            <feBlend mode="normal" in="SourceGraphic" in2="BackgroundImageFix" result="shape"/>
            <feGaussianBlur stdDeviation="19.5" result="effect1_foregroundBlur_0_279"/>
        </filter>
        <filter id="filter1_d_0_279" x="-4.25" y="-23.5" width="61.25" height="60.9286" filterUnits="userSpaceOnUse"
                color-interpolation-filters="sRGB">
            <feFlood flood-opacity="0" result="BackgroundImageFix"/>
            <feColorMatrix in="SourceAlpha" type="matrix" values="0 0 0 0 0 0 0 0 0 0 0 0 0 0 0 0 0 0 127 0"
                           result="hardAlpha"/>
            <feOffset dx="2" dy="1"/>
            <feGaussianBlur stdDeviation="12.5"/>
            <feColorMatrix type="matrix" values="0 0 0 0 0 0 0 0 0 0 0 0 0 0 0 0 0 0 0.33 0"/>
            <feBlend mode="normal" in2="BackgroundImageFix" result="effect1_dropShadow_0_279"/>
            <feBlend mode="normal" in="SourceGraphic" in2="effect1_dropShadow_0_279" result="shape"/>
        </filter>
        <linearGradient id="paint0_linear_0_279" x1="15" y1="0.5" x2="15" y2="33.5" gradientUnits="userSpaceOnUse">
            <stop stop-color="#FF7979"/>
            <stop offset="1" stop-color="#E85555"/>
        </linearGradient>
        <linearGradient id="paint1_linear_0_279" x1="15" y1="0.5" x2="15" y2="33.5" gradientUnits="userSpaceOnUse">
            <stop offset="0.000265127" stop-color="#83CC70"/>
            <stop offset="1" stop-color="#61A850"/>
        </linearGradient>
        <linearGradient id="paint2_linear_0_279" x1="15" y1="0.5" x2="15" y2="33.5" gradientUnits="userSpaceOnUse">
            <stop offset="0.000265127" stop-color="#83CC70"/>
            <stop offset="1" stop-color="#61A850"/>
        </linearGradient>
        <linearGradient id="paint3_linear_0_279" x1="0.190558" y1="-0.0495036" x2="7.29487" y2="19.36"
                        gradientUnits="userSpaceOnUse">
            <stop stop-color="white" stop-opacity="0"/>
            <stop offset="1" stop-color="white"/>
        </linearGradient>
        <linearGradient id="paint4_linear_0_279" x1="-0.47412" y1="-0.344072" x2="3.97192" y2="11.8337"
                        gradientUnits="userSpaceOnUse">
            <stop stop-color="white" stop-opacity="0"/>
            <stop offset="1" stop-color="white"/>
        </linearGradient>
        <linearGradient id="paint5_linear_0_279" x1="24.375" y1="0.5" x2="24.375" y2="11.4286"
                        gradientUnits="userSpaceOnUse">
            <stop stop-color="#3FAF43"/>
            <stop offset="1" stop-color="#0E8312"/>
        </linearGradient>
    </defs>
</svg>